<svg width="376.921mm" height="231.971mm" viewBox="0 0 376.921 231.971" xmlns="http://www.w3.org/2000/svg" version="1.1" preserveAspectRatio="xMidYMid meet"><g id="svgGroup" stroke-linecap="round" fill-rule="evenodd" font-size="9pt" stroke="#000" stroke-width="0.25mm" fill="none" style="stroke:#000;stroke-width:0.25mm;fill:none"><path d="M 0 178.971 L 0 187.096 L 3 187.096 L 3 198.346 L 0 198.346 L 0 209.596 L 3 209.596 L 3 220.846 L 0 220.846 L 0 228.971 L 17.375 228.971 L 17.375 231.971 L 28.625 231.971 L 28.625 228.971 L 39.875 228.971 L 46 228.971 L 46 220.846 L 43 220.846 L 43 209.596 L 46 209.596 L 46 198.346 L 43 198.346 L 43 187.096 L 46 187.096 L 46 178.971 L 28.625 178.971 L 28.625 175.971 L 17.375 175.971 L 17.375 178.971 L 6.125 178.971 L 0 178.971 Z" id="END_outsideCutPath" stroke="#FF0000" stroke-width="0.1" style="stroke:#FF0000;stroke-width:0.1" vector-effect="non-scaling-stroke"/><path d="M 24.599 200.687 L 24.599 207.254 L 23.728 207.254 L 20.138 201.743 L 20.102 201.743 A 27.798 27.798 0 0 1 20.156 202.672 A 21.065 21.065 0 0 1 20.174 203.521 L 20.174 207.254 L 19.469 207.254 L 19.469 200.687 L 20.332 200.687 L 23.912 206.176 L 23.948 206.176 Q 23.939 206.055 23.907 205.397 A 32.51 32.51 0 0 1 23.897 205.155 Q 23.88 204.749 23.883 204.523 A 3.788 3.788 0 0 1 23.885 204.456 L 23.885 200.687 L 24.599 200.687 Z M 18.014 206.572 L 18.014 207.254 L 14.352 207.254 L 14.352 200.687 L 18.014 200.687 L 18.014 201.365 L 15.116 201.365 L 15.116 203.481 L 17.838 203.481 L 17.838 204.155 L 15.116 204.155 L 15.116 206.572 L 18.014 206.572 Z M 28.224 207.254 L 26.405 207.254 L 26.405 200.687 L 28.418 200.687 A 4.435 4.435 0 0 1 29.385 200.786 Q 30.026 200.929 30.5 201.279 A 2.624 2.624 0 0 1 30.798 201.536 Q 31.647 202.385 31.647 203.908 A 4.786 4.786 0 0 1 31.553 204.887 Q 31.429 205.481 31.14 205.933 A 2.594 2.594 0 0 1 30.765 206.394 Q 29.882 207.254 28.224 207.254 Z M 28.278 201.347 L 27.169 201.347 L 27.169 206.594 L 28.099 206.594 A 4.432 4.432 0 0 0 28.868 206.532 Q 29.29 206.457 29.622 206.294 A 2.043 2.043 0 0 0 30.151 205.923 Q 30.839 205.251 30.839 203.935 A 4.079 4.079 0 0 0 30.777 203.198 Q 30.702 202.793 30.539 202.477 A 1.935 1.935 0 0 0 30.194 201.999 Q 29.647 201.446 28.649 201.362 A 4.439 4.439 0 0 0 28.278 201.347 Z" id="END_labelLayer" stroke="#777777" fill="#777777" style="stroke:#777777;fill:#777777" vector-effect="non-scaling-stroke"/><path d="M 52 59 L 52 73.625 L 49 73.625 L 49 84.875 L 52 84.875 L 52 96.125 L 49 96.125 L 49 107.375 L 52 107.375 L 52 118.625 L 49 118.625 L 49 129.875 L 52 129.875 L 52 141.125 L 49 141.125 L 49 152.375 L 52 152.375 L 52 163.625 L 49 163.625 L 49 174.875 L 52 174.875 L 52 186.125 L 49 186.125 L 49 197.375 L 52 197.375 L 52 208.625 L 52 212 L 52.156 214.493 L 52.622 216.948 L 53.39 219.325 L 54.448 221.589 L 55.781 223.702 L 57.366 225.633 L 59.18 227.351 L 61.194 228.829 L 63.376 230.045 L 65.694 230.98 L 68.109 231.618 L 70.585 231.95 L 73.084 231.971 L 75.565 231.68 L 77.991 231.082 L 80.323 230.186 L 82.525 229.006 L 84.563 227.561 L 86.406 225.874 L 88.023 223.969 L 89.39 221.878 L 90.486 219.633 L 91.293 217.269 L 91.8 214.822 L 91.997 212.332 L 92 212 L 92 197.375 L 95 197.375 L 95 186.125 L 92 186.125 L 92 174.875 L 95 174.875 L 95 163.625 L 92 163.625 L 92 152.375 L 95 152.375 L 95 141.125 L 92 141.125 L 92 129.875 L 95 129.875 L 95 118.625 L 92 118.625 L 92 107.375 L 95 107.375 L 95 96.125 L 92 96.125 L 92 84.875 L 95 84.875 L 95 73.625 L 92 73.625 L 92 62.375 L 92 59 L 77.625 59 L 77.625 62 L 66.375 62 L 66.375 59 L 55.125 59 L 52 59 Z" id="TOP_outsideCutPath" stroke="#FF0000" stroke-width="0.1" style="stroke:#FF0000;stroke-width:0.1" vector-effect="non-scaling-stroke"/><path d="M 66.223 132.901 L 66.223 138.791 L 65.459 138.791 L 65.459 132.901 L 63.379 132.901 L 63.379 132.223 L 68.303 132.223 L 68.303 132.901 L 66.223 132.901 Z M 74.898 136.502 A 5.032 5.032 0 0 0 74.992 135.498 A 5.9 5.9 0 0 0 74.984 135.191 Q 74.913 133.827 74.197 133.018 A 2.552 2.552 0 0 0 72.923 132.236 A 3.577 3.577 0 0 0 71.986 132.12 A 3.906 3.906 0 0 0 71.137 132.207 A 2.57 2.57 0 0 0 69.74 133.002 Q 69.209 133.595 69.035 134.514 A 5.234 5.234 0 0 0 68.95 135.489 A 6.052 6.052 0 0 0 68.964 135.916 Q 69.002 136.444 69.135 136.884 A 2.911 2.911 0 0 0 69.738 137.993 A 2.542 2.542 0 0 0 71.058 138.776 A 3.796 3.796 0 0 0 71.977 138.88 A 3.814 3.814 0 0 0 72.648 138.824 A 2.608 2.608 0 0 0 74.194 137.977 A 2.803 2.803 0 0 0 74.488 137.579 Q 74.774 137.109 74.898 136.502 Z M 77.993 136.208 L 77.22 136.208 L 77.22 138.791 L 76.456 138.791 L 76.456 132.223 L 78.159 132.223 Q 80.62 132.223 80.62 134.137 Q 80.62 135.134 79.94 135.671 A 2.248 2.248 0 0 1 79.218 136.042 Q 78.695 136.208 77.993 136.208 Z M 69.758 135.498 A 5.018 5.018 0 0 0 69.811 136.251 Q 69.871 136.643 69.998 136.959 A 2.128 2.128 0 0 0 70.327 137.521 A 1.838 1.838 0 0 0 71.409 138.156 A 2.806 2.806 0 0 0 71.977 138.211 A 2.755 2.755 0 0 0 72.636 138.137 A 1.783 1.783 0 0 0 73.626 137.524 Q 74.183 136.836 74.183 135.498 Q 74.183 134.64 73.951 134.051 A 2.126 2.126 0 0 0 73.628 133.488 A 1.786 1.786 0 0 0 72.6 132.866 A 2.784 2.784 0 0 0 71.986 132.802 A 2.761 2.761 0 0 0 71.326 132.877 A 1.82 1.82 0 0 0 70.327 133.492 Q 69.886 134.026 69.787 134.936 A 5.188 5.188 0 0 0 69.758 135.498 Z M 77.22 132.883 L 77.22 135.552 L 77.907 135.552 Q 78.773 135.552 79.231 135.313 A 1.178 1.178 0 0 0 79.376 135.224 A 1.043 1.043 0 0 0 79.774 134.632 Q 79.83 134.427 79.83 134.173 Q 79.83 133.521 79.403 133.202 A 1.328 1.328 0 0 0 79.035 133.014 Q 78.69 132.896 78.187 132.885 A 4.859 4.859 0 0 0 78.073 132.883 L 77.22 132.883 Z" id="TOP_labelLayer" stroke="#777777" fill="#777777" style="stroke:#777777;fill:#777777" vector-effect="non-scaling-stroke"/><path d="M 101 59 L 101 73.625 L 98 73.625 L 98 84.875 L 101 84.875 L 101 96.125 L 98 96.125 L 98 107.375 L 101 107.375 L 101 118.625 L 98 118.625 L 98 129.875 L 101 129.875 L 101 141.125 L 98 141.125 L 98 152.375 L 101 152.375 L 101 163.625 L 98 163.625 L 98 174.875 L 101 174.875 L 101 186.125 L 98 186.125 L 98 197.375 L 101 197.375 L 101 208.625 L 101 212 L 101.156 214.493 L 101.622 216.948 L 102.39 219.325 L 103.448 221.589 L 104.781 223.702 L 106.366 225.633 L 108.18 227.351 L 110.194 228.829 L 112.376 230.045 L 114.694 230.98 L 117.109 231.618 L 119.585 231.95 L 122.084 231.971 L 124.565 231.68 L 126.991 231.082 L 129.323 230.186 L 131.525 229.006 L 133.563 227.561 L 135.406 225.874 L 137.023 223.969 L 138.39 221.878 L 139.486 219.633 L 140.293 217.269 L 140.8 214.822 L 140.997 212.332 L 141 212 L 141 197.375 L 144 197.375 L 144 186.125 L 141 186.125 L 141 174.875 L 144 174.875 L 144 163.625 L 141 163.625 L 141 152.375 L 144 152.375 L 144 141.125 L 141 141.125 L 141 129.875 L 144 129.875 L 144 118.625 L 141 118.625 L 141 107.375 L 144 107.375 L 144 96.125 L 141 96.125 L 141 84.875 L 144 84.875 L 144 73.625 L 141 73.625 L 141 62.375 L 141 59 L 126.625 59 L 126.625 62 L 115.375 62 L 115.375 59 L 104.125 59 L 101 59 Z" id="BOTTOM_outsideCutPath" stroke="#FF0000" stroke-width="0.1" style="stroke:#FF0000;stroke-width:0.1" vector-effect="non-scaling-stroke"/><path d="M 136.505 138.791 L 135.889 138.791 L 133.661 132.969 L 133.625 132.969 Q 133.673 133.498 133.685 134.181 A 26.151 26.151 0 0 1 133.688 134.613 L 133.688 138.791 L 132.983 138.791 L 132.983 132.223 L 134.133 132.223 L 136.213 137.641 L 136.249 137.641 L 138.347 132.223 L 139.488 132.223 L 139.488 138.791 L 138.724 138.791 L 138.724 134.559 Q 138.724 133.831 138.787 132.978 L 138.751 132.978 L 136.505 138.791 Z M 117.66 132.901 L 117.66 138.791 L 116.896 138.791 L 116.896 132.901 L 114.817 132.901 L 114.817 132.223 L 119.74 132.223 L 119.74 132.901 L 117.66 132.901 Z M 122.75 132.901 L 122.75 138.791 L 121.986 138.791 L 121.986 132.901 L 119.906 132.901 L 119.906 132.223 L 124.83 132.223 L 124.83 132.901 L 122.75 132.901 Z M 102.512 138.791 L 102.512 132.223 L 104.368 132.223 A 6.968 6.968 0 0 1 105.011 132.251 Q 105.654 132.31 106.057 132.5 A 1.557 1.557 0 0 1 106.259 132.614 A 1.269 1.269 0 0 1 106.809 133.467 A 2.023 2.023 0 0 1 106.843 133.849 A 1.722 1.722 0 0 1 106.789 134.29 A 1.302 1.302 0 0 1 106.517 134.813 A 1.35 1.35 0 0 1 106.033 135.166 Q 105.845 135.249 105.615 135.295 A 2.491 2.491 0 0 1 105.567 135.305 L 105.567 135.35 A 2.64 2.64 0 0 1 106.186 135.528 Q 107.063 135.914 107.063 136.922 A 2.089 2.089 0 0 1 106.983 137.516 A 1.573 1.573 0 0 1 106.468 138.296 Q 105.966 138.713 105.128 138.778 A 4.168 4.168 0 0 1 104.803 138.791 L 102.512 138.791 Z M 114.08 136.502 A 5.032 5.032 0 0 0 114.174 135.498 A 5.9 5.9 0 0 0 114.166 135.191 Q 114.095 133.827 113.379 133.018 A 2.552 2.552 0 0 0 112.106 132.236 A 3.577 3.577 0 0 0 111.169 132.12 A 3.906 3.906 0 0 0 110.319 132.207 A 2.57 2.57 0 0 0 108.923 133.002 Q 108.392 133.595 108.217 134.514 A 5.234 5.234 0 0 0 108.132 135.489 A 6.052 6.052 0 0 0 108.147 135.916 Q 108.184 136.444 108.317 136.884 A 2.911 2.911 0 0 0 108.921 137.993 A 2.542 2.542 0 0 0 110.241 138.776 A 3.796 3.796 0 0 0 111.16 138.88 A 3.814 3.814 0 0 0 111.831 138.824 A 2.608 2.608 0 0 0 113.377 137.977 A 2.803 2.803 0 0 0 113.67 137.579 Q 113.956 137.109 114.08 136.502 Z M 131.424 136.502 A 5.032 5.032 0 0 0 131.518 135.498 A 5.9 5.9 0 0 0 131.511 135.191 Q 131.44 133.827 130.723 133.018 A 2.552 2.552 0 0 0 129.45 132.236 A 3.577 3.577 0 0 0 128.513 132.12 A 3.906 3.906 0 0 0 127.664 132.207 A 2.57 2.57 0 0 0 126.267 133.002 Q 125.736 133.595 125.562 134.514 A 5.234 5.234 0 0 0 125.476 135.489 A 6.052 6.052 0 0 0 125.491 135.916 Q 125.528 136.444 125.661 136.884 A 2.911 2.911 0 0 0 126.265 137.993 A 2.542 2.542 0 0 0 127.585 138.776 A 3.796 3.796 0 0 0 128.504 138.88 A 3.814 3.814 0 0 0 129.175 138.824 A 2.608 2.608 0 0 0 130.721 137.977 A 2.803 2.803 0 0 0 131.015 137.579 Q 131.301 137.109 131.424 136.502 Z M 108.941 135.498 A 5.018 5.018 0 0 0 108.993 136.251 Q 109.053 136.643 109.181 136.959 A 2.128 2.128 0 0 0 109.509 137.521 A 1.838 1.838 0 0 0 110.592 138.156 A 2.806 2.806 0 0 0 111.16 138.211 A 2.755 2.755 0 0 0 111.819 138.137 A 1.783 1.783 0 0 0 112.808 137.524 Q 113.366 136.836 113.366 135.498 Q 113.366 134.64 113.133 134.051 A 2.126 2.126 0 0 0 112.811 133.488 A 1.786 1.786 0 0 0 111.782 132.866 A 2.784 2.784 0 0 0 111.169 132.802 A 2.761 2.761 0 0 0 110.509 132.877 A 1.82 1.82 0 0 0 109.509 133.492 Q 109.069 134.026 108.97 134.936 A 5.188 5.188 0 0 0 108.941 135.498 Z M 126.285 135.498 A 5.018 5.018 0 0 0 126.338 136.251 Q 126.398 136.643 126.525 136.959 A 2.128 2.128 0 0 0 126.853 137.521 A 1.838 1.838 0 0 0 127.936 138.156 A 2.806 2.806 0 0 0 128.504 138.211 A 2.755 2.755 0 0 0 129.163 138.137 A 1.783 1.783 0 0 0 130.153 137.524 Q 130.71 136.836 130.71 135.498 Q 130.71 134.64 130.478 134.051 A 2.126 2.126 0 0 0 130.155 133.488 A 1.786 1.786 0 0 0 129.126 132.866 A 2.784 2.784 0 0 0 128.513 132.802 A 2.761 2.761 0 0 0 127.853 132.877 A 1.82 1.82 0 0 0 126.853 133.492 Q 126.413 134.026 126.314 134.936 A 5.188 5.188 0 0 0 126.285 135.498 Z M 104.583 135.682 L 103.276 135.682 L 103.276 138.139 L 104.646 138.139 A 3.287 3.287 0 0 0 105.084 138.112 Q 105.305 138.082 105.485 138.019 A 1.276 1.276 0 0 0 105.843 137.831 A 0.976 0.976 0 0 0 106.192 137.298 Q 106.239 137.131 106.245 136.929 A 2.062 2.062 0 0 0 106.245 136.868 Q 106.245 136.257 105.834 135.969 A 1.324 1.324 0 0 0 105.484 135.8 Q 105.145 135.69 104.652 135.682 A 4.757 4.757 0 0 0 104.583 135.682 Z M 103.276 132.883 L 103.276 135.035 L 104.534 135.035 A 4.093 4.093 0 0 0 104.931 135.017 Q 105.328 134.978 105.574 134.855 A 0.921 0.921 0 0 0 105.697 134.781 A 0.791 0.791 0 0 0 105.988 134.373 Q 106.034 134.235 106.047 134.064 A 1.842 1.842 0 0 0 106.052 133.925 A 1.207 1.207 0 0 0 106.014 133.612 A 0.789 0.789 0 0 0 105.657 133.128 Q 105.31 132.913 104.604 132.887 A 5.492 5.492 0 0 0 104.399 132.883 L 103.276 132.883 Z" id="BOTTOM_labelLayer" stroke="#777777" fill="#777777" style="stroke:#777777;fill:#777777" vector-effect="non-scaling-stroke"/><path d="M 153 56 153 42 M 153 35 153 21 M 153 14 153 0 M 156.087 56 156.087 52.5 M 156.087 45.5 156.087 31.5 M 156.087 24.5 156.087 10.5 M 156.087 3.5 156.087 0 M 159.175 56 159.175 42 M 159.175 35 159.175 21 M 159.175 14 159.175 0 M 162.262 56 162.262 52.5 M 162.262 45.5 162.262 31.5 M 162.262 24.5 162.262 10.5 M 162.262 3.5 162.262 0 M 165.349 56 165.349 42 M 165.349 35 165.349 21 M 165.349 14 165.349 0 M 168.437 56 168.437 52.5 M 168.437 45.5 168.437 31.5 M 168.437 24.5 168.437 10.5 M 168.437 3.5 168.437 0 M 171.524 56 171.524 42 M 171.524 35 171.524 21 M 171.524 14 171.524 0 M 174.611 56 174.611 52.5 M 174.611 45.5 174.611 31.5 M 174.611 24.5 174.611 10.5 M 174.611 3.5 174.611 0 M 177.699 56 177.699 42 M 177.699 35 177.699 21 M 177.699 14 177.699 0 M 180.786 56 180.786 52.5 M 180.786 45.5 180.786 31.5 M 180.786 24.5 180.786 10.5 M 180.786 3.5 180.786 0 M 183.873 56 183.873 42 M 183.873 35 183.873 21 M 183.873 14 183.873 0 M 186.961 56 186.961 52.5 M 186.961 45.5 186.961 31.5 M 186.961 24.5 186.961 10.5 M 186.961 3.5 186.961 0 M 190.048 56 190.048 42 M 190.048 35 190.048 21 M 190.048 14 190.048 0 M 193.135 56 193.135 52.5 M 193.135 45.5 193.135 31.5 M 193.135 24.5 193.135 10.5 M 193.135 3.5 193.135 0 M 196.223 56 196.223 42 M 196.223 35 196.223 21 M 196.223 14 196.223 0 M 199.31 56 199.31 52.5 M 199.31 45.5 199.31 31.5 M 199.31 24.5 199.31 10.5 M 199.31 3.5 199.31 0 M 202.397 56 202.397 42 M 202.397 35 202.397 21 M 202.397 14 202.397 0 M 205.485 56 205.485 52.5 M 205.485 45.5 205.485 31.5 M 205.485 24.5 205.485 10.5 M 205.485 3.5 205.485 0 M 208.572 56 208.572 42 M 208.572 35 208.572 21 M 208.572 14 208.572 0 M 211.659 56 211.659 52.5 M 211.659 45.5 211.659 31.5 M 211.659 24.5 211.659 10.5 M 211.659 3.5 211.659 0 M 214.747 56 214.747 42 M 214.747 35 214.747 21 M 214.747 14 214.747 0 M 217.834 56 217.834 52.5 M 217.834 45.5 217.834 31.5 M 217.834 24.5 217.834 10.5 M 217.834 3.5 217.834 0 M 220.921 56 220.921 42 M 220.921 35 220.921 21 M 220.921 14 220.921 0" id="SIDE_insideCutPath" stroke="#0000FF" stroke-width="0.1" style="stroke:#0000FF;stroke-width:0.1" vector-effect="non-scaling-stroke"/><path d="M 3 0 L 3 11.125 L 0 11.125 L 0 22.375 L 3 22.375 L 3 33.625 L 0 33.625 L 0 44.875 L 3 44.875 L 3 56 L 14.625 56 L 14.625 53 L 25.875 53 L 25.875 56 L 37.125 56 L 37.125 53 L 48.375 53 L 48.375 56 L 59.625 56 L 59.625 53 L 70.875 53 L 70.875 56 L 82.125 56 L 82.125 53 L 93.375 53 L 93.375 56 L 104.625 56 L 104.625 53 L 115.875 53 L 115.875 56 L 127.125 56 L 127.125 53 L 138.375 53 L 138.375 56 L 149.625 56 L 153 56 L 223.921 56 L 238.546 56 L 238.546 53 L 249.796 53 L 249.796 56 L 261.046 56 L 261.046 53 L 272.296 53 L 272.296 56 L 283.546 56 L 283.546 53 L 294.796 53 L 294.796 56 L 306.046 56 L 306.046 53 L 317.296 53 L 317.296 56 L 328.546 56 L 328.546 53 L 339.796 53 L 339.796 56 L 351.046 56 L 351.046 53 L 362.296 53 L 362.296 56 L 373.546 56 L 373.921 56 L 373.921 44.875 L 376.921 44.875 L 376.921 33.625 L 373.921 33.625 L 373.921 22.375 L 376.921 22.375 L 376.921 11.125 L 373.921 11.125 L 373.921 0 L 362.296 0 L 362.296 3 L 351.046 3 L 351.046 0 L 339.796 0 L 339.796 3 L 328.546 3 L 328.546 0 L 317.296 0 L 317.296 3 L 306.046 3 L 306.046 0 L 294.796 0 L 294.796 3 L 283.546 3 L 283.546 0 L 272.296 0 L 272.296 3 L 261.046 3 L 261.046 0 L 249.796 0 L 249.796 3 L 238.546 3 L 238.546 0 L 227.296 0 L 223.921 0 L 153 0 L 138.375 0 L 138.375 3 L 127.125 3 L 127.125 0 L 115.875 0 L 115.875 3 L 104.625 3 L 104.625 0 L 93.375 0 L 93.375 3 L 82.125 3 L 82.125 0 L 70.875 0 L 70.875 3 L 59.625 3 L 59.625 0 L 48.375 0 L 48.375 3 L 37.125 3 L 37.125 0 L 25.875 0 L 25.875 3 L 14.625 3 L 14.625 0 L 3.375 0 L 3 0 Z" id="SIDE_outsideCutPath" stroke="#FF0000" stroke-width="0.1" style="stroke:#FF0000;stroke-width:0.1" vector-effect="non-scaling-stroke"/><path d="M 199.666 31.169 L 199.666 32 L 195.209 32 L 195.209 24.005 L 199.666 24.005 L 199.666 24.831 L 196.139 24.831 L 196.139 27.407 L 199.453 27.407 L 199.453 28.227 L 196.139 28.227 L 196.139 31.169 L 199.666 31.169 Z M 177.255 31.743 L 177.255 30.847 A 5.527 5.527 0 0 0 178.025 31.105 A 6.477 6.477 0 0 0 178.327 31.175 A 5.639 5.639 0 0 0 179.476 31.295 A 3.92 3.92 0 0 0 179.987 31.264 Q 180.244 31.23 180.453 31.159 A 1.506 1.506 0 0 0 180.876 30.942 A 1.131 1.131 0 0 0 181.338 30.115 A 1.552 1.552 0 0 0 181.346 29.961 A 1.699 1.699 0 0 0 181.323 29.673 Q 181.296 29.514 181.236 29.384 A 0.925 0.925 0 0 0 181.179 29.28 Q 181.048 29.072 180.78 28.889 A 2.434 2.434 0 0 0 180.621 28.79 Q 180.23 28.566 179.432 28.282 A 6.39 6.39 0 0 1 178.811 28.025 Q 178.17 27.716 177.838 27.336 A 1.888 1.888 0 0 1 177.412 26.456 A 2.708 2.708 0 0 1 177.359 25.908 A 1.978 1.978 0 0 1 177.483 25.196 A 1.756 1.756 0 0 1 178.054 24.437 A 2.43 2.43 0 0 1 178.962 23.999 Q 179.382 23.89 179.891 23.89 A 5.681 5.681 0 0 1 181.374 24.079 A 5.046 5.046 0 0 1 182.084 24.328 L 181.794 25.137 A 5.481 5.481 0 0 0 180.728 24.807 A 4.453 4.453 0 0 0 179.869 24.722 A 2.774 2.774 0 0 0 179.42 24.756 Q 179.181 24.795 178.988 24.88 A 1.322 1.322 0 0 0 178.715 25.039 A 1.02 1.02 0 0 0 178.306 25.782 A 1.41 1.41 0 0 0 178.3 25.919 A 1.851 1.851 0 0 0 178.32 26.204 Q 178.356 26.432 178.453 26.6 Q 178.606 26.865 178.97 27.087 A 3.198 3.198 0 0 0 179.22 27.222 Q 179.477 27.349 179.846 27.489 A 13.045 13.045 0 0 0 180.083 27.576 A 8.727 8.727 0 0 1 180.712 27.826 Q 181.47 28.165 181.813 28.539 A 1.762 1.762 0 0 1 182.253 29.456 A 2.467 2.467 0 0 1 182.287 29.873 A 2.334 2.334 0 0 1 182.179 30.599 A 1.876 1.876 0 0 1 181.521 31.519 Q 180.863 32.027 179.801 32.098 A 5.345 5.345 0 0 1 179.443 32.11 Q 178.021 32.11 177.255 31.743 Z M 189.259 32 L 187.044 32 L 187.044 24.005 L 189.494 24.005 A 5.399 5.399 0 0 1 190.672 24.126 Q 191.452 24.3 192.03 24.727 A 3.194 3.194 0 0 1 192.393 25.039 A 3.392 3.392 0 0 1 193.278 26.639 Q 193.415 27.178 193.425 27.817 A 6.522 6.522 0 0 1 193.426 27.926 Q 193.426 29.906 192.352 30.953 Q 191.399 31.882 189.705 31.987 A 7.184 7.184 0 0 1 189.259 32 Z M 189.325 24.809 L 187.974 24.809 L 187.974 31.197 L 189.106 31.197 Q 190.218 31.197 190.96 30.831 A 2.487 2.487 0 0 0 191.605 30.379 Q 192.319 29.681 192.424 28.412 A 5.514 5.514 0 0 0 192.442 27.959 A 4.965 4.965 0 0 0 192.366 27.062 Q 192.198 26.149 191.657 25.602 A 2.476 2.476 0 0 0 190.645 24.995 Q 190.074 24.809 189.325 24.809 Z M 184.851 32 L 183.922 32 L 183.922 24.005 L 184.851 24.005 L 184.851 32 Z" id="SIDE_labelLayer" stroke="#777777" fill="#777777" style="stroke:#777777;fill:#777777" vector-effect="non-scaling-stroke"/></g></svg>