<?xml version="1.0" encoding="UTF-8" standalone="no"?>
<svg
   width="429mm"
   height="305mm"
   viewBox="0 0 429 305"
   version="1.1"
   preserveAspectRatio="xMidYMid meet"
   id="svg1"
   sodipodi:docname="Shruti-1_Box V2.svg"
   inkscape:version="1.3.2 (1:1.3.2+202311252150+091e20ef0f)"
   xml:space="preserve"
   xmlns:inkscape="http://www.inkscape.org/namespaces/inkscape"
   xmlns:sodipodi="http://sodipodi.sourceforge.net/DTD/sodipodi-0.dtd"
   xmlns="http://www.w3.org/2000/svg"
   xmlns:svg="http://www.w3.org/2000/svg"><defs
     id="defs1" /><sodipodi:namedview
     id="namedview1"
     pagecolor="#ffffff"
     bordercolor="#666666"
     borderopacity="1.0"
     inkscape:showpageshadow="2"
     inkscape:pageopacity="0.0"
     inkscape:pagecheckerboard="0"
     inkscape:deskcolor="#d1d1d1"
     inkscape:document-units="mm"
     inkscape:zoom="0.66549489"
     inkscape:cx="788.8866"
     inkscape:cy="577.76552"
     inkscape:window-width="1680"
     inkscape:window-height="992"
     inkscape:window-x="0"
     inkscape:window-y="0"
     inkscape:window-maximized="1"
     inkscape:current-layer="svg1"
     showgrid="false"><inkscape:grid
       id="grid1"
       units="mm"
       originx="0"
       originy="0"
       spacingx="1"
       spacingy="1"
       empcolor="#0099e5"
       empopacity="0.30196078"
       color="#0099e5"
       opacity="0.14901961"
       empspacing="5"
       dotted="false"
       gridanglex="30"
       gridanglez="30"
       visible="false" /></sodipodi:namedview><path
     d="m 0,249 v 16 h 3 v 24 H 0 v 16 h 32 v -3 h 24 v 3 h 24 v -3 h 24 v 3 h 24 8 v -16 h -3 v -24 h 3 v -16 h -32 v 3 H 80 v -3 H 56 v 3 H 32 v -3 H 8 Z"
     id="front_outsideCutPath"
     stroke="#FF0000"
     stroke-width="0.1"
     style="font-size:12px;fill:none;fill-rule:evenodd;stroke:#ff0000;stroke-width:0.5;stroke-linecap:round;stroke-dasharray:none"
     vector-effect="non-scaling-stroke" /><path
     d="m 142,249 v 16 h -3 v 24 h 3 v 16 h 12.5 v -3 h 24 v 3 h 24 v -3 h 24 v 3 h 24 v -3 h 24 v 3 H 287 v -16 h 3 v -24 h -3 v -16 h -12.5 v 3 h -24 v -3 h -24 v 3 h -24 v -3 h -24 v 3 h -24 v -3 z"
     id="left_outsideCutPath"
     stroke="#FF0000"
     stroke-width="0.1"
     style="font-size:12px;fill:none;fill-rule:evenodd;stroke:#ff0000;stroke-width:0.5;stroke-linecap:round;stroke-dasharray:none"
     vector-effect="non-scaling-stroke" /><path
     d="m 296,157 v 12.5 h -3 v 24 h 3 v 24 h -3 v 24 h 3 v 24 h -3 v 24 h 3 V 302 h 29 v 3 h 24 v -3 h 24 v 3 h 24 v -3 h 24 5 v -12.5 h 3 v -24 h -3 v -24 h 3 v -24 h -3 v -24 h 3 v -24 h -3 V 157 h -29 v -3 h -24 v 3 h -24 v -3 h -24 v 3 h -24 z"
     id="top_outsideCutPath"
     stroke="#FF0000"
     stroke-width="0.1"
     style="font-size:12px;fill:none;fill-rule:evenodd;stroke:#ff0000;stroke-width:0.5;stroke-linecap:round;stroke-dasharray:none"
     vector-effect="non-scaling-stroke" /><path
     d="m 0,190 v 16 h 3 v 24 H 0 v 16 h 32 v -3 h 24 v 3 h 24 v -3 h 24 v 3 h 24 8 v -16 h -3 v -24 h 3 v -16 h -32 v 3 H 80 v -3 H 56 v 3 H 32 v -3 H 8 Z"
     id="back_outsideCutPath"
     stroke="#FF0000"
     stroke-width="0.1"
     style="font-size:12px;fill:none;fill-rule:evenodd;stroke:#ff0000;stroke-width:0.5;stroke-linecap:round;stroke-dasharray:none"
     vector-effect="non-scaling-stroke" /><path
     d="m 142,190 v 16 h -3 v 24 h 3 v 16 h 12.5 v -3 h 24 v 3 h 24 v -3 h 24 v 3 h 24 v -3 h 24 v 3 H 287 v -16 h 3 v -24 h -3 v -16 h -12.5 v 3 h -24 v -3 h -24 v 3 h -24 v -3 h -24 v 3 h -24 v -3 z"
     id="right_outsideCutPath"
     stroke="#FF0000"
     stroke-width="0.1"
     style="font-size:12px;fill:none;fill-rule:evenodd;stroke:#ff0000;stroke-width:0.5;stroke-linecap:round;stroke-dasharray:none"
     vector-effect="non-scaling-stroke" /><path
     d="m 296,3 v 12.5 h -3 v 24 h 3 v 24 h -3 v 24 h 3 v 24 h -3 v 24 h 3 V 148 h 29 v 3 h 24 v -3 h 24 v 3 h 24 v -3 h 24 5 v -12.5 h 3 v -24 h -3 v -24 h 3 v -24 h -3 v -24 h 3 v -24 h -3 V 3 H 397 V 0 H 373 V 3 H 349 V 0 h -24 v 3 h -24 z"
     id="bottom_outsideCutPath"
     stroke="#FF0000"
     stroke-width="0.1"
     style="font-size:12px;fill:none;fill-rule:evenodd;stroke:#ff0000;stroke-width:0.5;stroke-linecap:round;stroke-dasharray:none"
     vector-effect="non-scaling-stroke" /><path
     id="rect2"
     style="fill:none;stroke:#000000;stroke-width:0.677787;stroke-linecap:round"
     d="m 341.57114,23.113394 h 73.2569 v 26.324034 h -73.2569 z" /><path
     id="rect3"
     style="fill:none;stroke:#000000;stroke-width:0.110844;stroke-linecap:round"
     d="m 313.59988,129.78505 h 100.7532 v 7.08275 h -100.7532 z" /><path
     id="rect4"
     style="fill:none;stroke:#000000;stroke-width:0.0947805;stroke-linecap:round"
     d="m 314.10852,120.40688 h 66.27127 v 4.21856 h -66.27127 z" /><path
     id="path4"
     style="fill:none;stroke:#000000;stroke-width:0.11325;stroke-linecap:round"
     d="m 321.62454,84.374679 a 2.898807,2.898807 0 0 1 1.68242,3.736495 2.898807,2.898807 0 0 1 -3.73507,1.685582 2.898807,2.898807 0 0 1 -1.68875,-3.733633 2.898807,2.898807 0 0 1 3.7322,-1.691921" /><path
     id="path4-1"
     style="fill:none;stroke:#000000;stroke-width:0.11325;stroke-linecap:round"
     d="m 350.72766,84.335762 a 2.898807,2.898807 0 0 1 1.68242,3.736494 2.898807,2.898807 0 0 1 -3.73507,1.685583 2.898807,2.898807 0 0 1 -1.68875,-3.733633 2.898807,2.898807 0 0 1 3.7322,-1.691921" /><path
     id="path5"
     style="fill:none;stroke:#000000;stroke-width:0.11325;stroke-linecap:round"
     d="m 379.75485,84.353134 a 2.898807,2.898807 0 0 1 1.68242,3.736494 2.898807,2.898807 0 0 1 -3.73507,1.685583 2.898807,2.898807 0 0 1 -1.68875,-3.733633 2.898807,2.898807 0 0 1 3.7322,-1.691921" /><path
     id="path5-9-6"
     style="fill:none;stroke:#000000;stroke-width:0.11325;stroke-linecap:round"
     d="m 408.7681,84.372505 a 2.898807,2.898807 0 0 1 1.68241,3.736494 2.898807,2.898807 0 0 1 -3.73506,1.685583 2.898807,2.898807 0 0 1 -1.68876,-3.733633 2.898807,2.898807 0 0 1 3.7322,-1.691921" /><path
     id="path6"
     style="fill:none;stroke:#000000;stroke-width:0.0723989;stroke-linecap:round"
     d="m 308.1694,22.736964 a 3.4629648,3.4629648 0 0 1 2.00984,4.463681 3.4629648,3.4629648 0 0 1 -4.46198,2.013626 3.4629648,3.4629648 0 0 1 -2.01741,-4.460262 3.4629648,3.4629648 0 0 1 4.45855,-2.021198" /><path
     id="path8"
     style="fill:none;stroke:#000000;stroke-width:0.0723989;stroke-linecap:round"
     d="m 308.24035,43.569047 a 3.4629648,3.4629648 0 0 1 2.00984,4.463681 3.4629648,3.4629648 0 0 1 -4.46197,2.013626 3.4629648,3.4629648 0 0 1 -2.01742,-4.460263 3.4629648,3.4629648 0 0 1 4.45855,-2.021197" /><path
     class="fil0 str1"
     d="m 21.481595,227.84924 6.477677,0.0684"
     id="path17"
     style="fill:none;fill-rule:evenodd;stroke:#da251d;stroke-width:0.2;stroke-linecap:round;stroke-linejoin:round;image-rendering:optimizeQuality;shape-rendering:geometricPrecision;text-rendering:geometricPrecision;stroke-dasharray:none" /><path
     class="fil0 str1"
     d="m 27.959272,227.91758 0.193777,0.10246"
     id="path18"
     style="fill:none;fill-rule:evenodd;stroke:#da251d;stroke-width:0.2;stroke-linecap:round;stroke-linejoin:round;image-rendering:optimizeQuality;shape-rendering:geometricPrecision;text-rendering:geometricPrecision;stroke-dasharray:none" /><path
     class="fil0 str1"
     d="m 28.153049,228.02006 0.193777,0.10246"
     id="path19"
     style="fill:none;fill-rule:evenodd;stroke:#da251d;stroke-width:0.2;stroke-linecap:round;stroke-linejoin:round;image-rendering:optimizeQuality;shape-rendering:geometricPrecision;text-rendering:geometricPrecision;stroke-dasharray:none" /><path
     class="fil0 str1"
     d="m 28.346826,228.12254 0.166094,0.13666"
     id="path20"
     style="fill:none;fill-rule:evenodd;stroke:#da251d;stroke-width:0.2;stroke-linecap:round;stroke-linejoin:round;image-rendering:optimizeQuality;shape-rendering:geometricPrecision;text-rendering:geometricPrecision;stroke-dasharray:none" /><path
     class="fil0 str1"
     d="m 28.51292,228.2592 0.166095,0.20498"
     id="path21"
     style="fill:none;fill-rule:evenodd;stroke:#da251d;stroke-width:0.2;stroke-linecap:round;stroke-linejoin:round;image-rendering:optimizeQuality;shape-rendering:geometricPrecision;text-rendering:geometricPrecision;stroke-dasharray:none" /><path
     class="fil0 str1"
     d="m 28.679015,228.46418 0.138412,0.17082"
     id="path22"
     style="fill:none;fill-rule:evenodd;stroke:#da251d;stroke-width:0.2;stroke-linecap:round;stroke-linejoin:round;image-rendering:optimizeQuality;shape-rendering:geometricPrecision;text-rendering:geometricPrecision;stroke-dasharray:none" /><path
     class="fil0 str1"
     d="m 28.817427,228.635 0.138412,0.23915"
     id="path23"
     style="fill:none;fill-rule:evenodd;stroke:#da251d;stroke-width:0.2;stroke-linecap:round;stroke-linejoin:round;image-rendering:optimizeQuality;shape-rendering:geometricPrecision;text-rendering:geometricPrecision;stroke-dasharray:none" /><path
     class="fil0 str1"
     d="m 28.955839,228.87415 0.08304,0.23914"
     id="path24"
     style="fill:none;fill-rule:evenodd;stroke:#da251d;stroke-width:0.2;stroke-linecap:round;stroke-linejoin:round;image-rendering:optimizeQuality;shape-rendering:geometricPrecision;text-rendering:geometricPrecision;stroke-dasharray:none" /><path
     class="fil0 str1"
     d="m 29.038885,229.11329 0.08304,0.23916"
     id="path25"
     style="fill:none;fill-rule:evenodd;stroke:#da251d;stroke-width:0.2;stroke-linecap:round;stroke-linejoin:round;image-rendering:optimizeQuality;shape-rendering:geometricPrecision;text-rendering:geometricPrecision;stroke-dasharray:none" /><path
     class="fil0 str1"
     d="m 29.121933,229.35245 0.05537,0.5466"
     id="path26"
     style="fill:none;fill-rule:evenodd;stroke:#da251d;stroke-width:0.2;stroke-linecap:round;stroke-linejoin:round;image-rendering:optimizeQuality;shape-rendering:geometricPrecision;text-rendering:geometricPrecision;stroke-dasharray:none" /><path
     class="fil0 str1"
     d="m 29.177298,229.89905 v 7.44766"
     id="path27"
     style="fill:none;fill-rule:evenodd;stroke:#da251d;stroke-width:0.2;stroke-linecap:round;stroke-linejoin:round;image-rendering:optimizeQuality;shape-rendering:geometricPrecision;text-rendering:geometricPrecision;stroke-dasharray:none" /><path
     class="fil0 str1"
     d="m 29.177298,237.34671 -0.05537,0.54663"
     id="path28"
     style="fill:none;fill-rule:evenodd;stroke:#da251d;stroke-width:0.2;stroke-linecap:round;stroke-linejoin:round;image-rendering:optimizeQuality;shape-rendering:geometricPrecision;text-rendering:geometricPrecision;stroke-dasharray:none" /><path
     class="fil0 str1"
     d="m 29.121933,237.89334 -0.08304,0.23913"
     id="path29"
     style="fill:none;fill-rule:evenodd;stroke:#da251d;stroke-width:0.2;stroke-linecap:round;stroke-linejoin:round;image-rendering:optimizeQuality;shape-rendering:geometricPrecision;text-rendering:geometricPrecision;stroke-dasharray:none" /><path
     class="fil0 str1"
     d="m 29.038885,238.13247 -0.08304,0.23916"
     id="path30"
     style="fill:none;fill-rule:evenodd;stroke:#da251d;stroke-width:0.2;stroke-linecap:round;stroke-linejoin:round;image-rendering:optimizeQuality;shape-rendering:geometricPrecision;text-rendering:geometricPrecision;stroke-dasharray:none" /><path
     class="fil0 str1"
     d="m 28.955839,238.37163 -0.138412,0.23914"
     id="path31"
     style="fill:none;fill-rule:evenodd;stroke:#da251d;stroke-width:0.2;stroke-linecap:round;stroke-linejoin:round;image-rendering:optimizeQuality;shape-rendering:geometricPrecision;text-rendering:geometricPrecision;stroke-dasharray:none" /><path
     class="fil0 str1"
     d="m 28.817427,238.61077 -0.138412,0.17081"
     id="path32"
     style="fill:none;fill-rule:evenodd;stroke:#da251d;stroke-width:0.2;stroke-linecap:round;stroke-linejoin:round;image-rendering:optimizeQuality;shape-rendering:geometricPrecision;text-rendering:geometricPrecision;stroke-dasharray:none" /><path
     class="fil0 str1"
     d="m 28.679015,238.78158 -0.166095,0.20499"
     id="path33"
     style="fill:none;fill-rule:evenodd;stroke:#da251d;stroke-width:0.2;stroke-linecap:round;stroke-linejoin:round;image-rendering:optimizeQuality;shape-rendering:geometricPrecision;text-rendering:geometricPrecision;stroke-dasharray:none" /><path
     class="fil0 str1"
     d="m 28.51292,238.98657 -0.166094,0.13666"
     id="path34"
     style="fill:none;fill-rule:evenodd;stroke:#da251d;stroke-width:0.2;stroke-linecap:round;stroke-linejoin:round;image-rendering:optimizeQuality;shape-rendering:geometricPrecision;text-rendering:geometricPrecision;stroke-dasharray:none" /><path
     class="fil0 str1"
     d="m 28.346826,239.12323 -0.193777,0.10249"
     id="path35"
     style="fill:none;fill-rule:evenodd;stroke:#da251d;stroke-width:0.2;stroke-linecap:round;stroke-linejoin:round;image-rendering:optimizeQuality;shape-rendering:geometricPrecision;text-rendering:geometricPrecision;stroke-dasharray:none" /><path
     class="fil0 str1"
     d="m 28.153049,239.22571 -0.193777,0.10246"
     id="path36"
     style="fill:none;fill-rule:evenodd;stroke:#da251d;stroke-width:0.2;stroke-linecap:round;stroke-linejoin:round;image-rendering:optimizeQuality;shape-rendering:geometricPrecision;text-rendering:geometricPrecision;stroke-dasharray:none" /><path
     class="fil0 str1"
     d="m 27.959272,239.32821 -0.442916,0.0684"
     id="path37"
     style="fill:none;fill-rule:evenodd;stroke:#da251d;stroke-width:0.2;stroke-linecap:round;stroke-linejoin:round;image-rendering:optimizeQuality;shape-rendering:geometricPrecision;text-rendering:geometricPrecision;stroke-dasharray:none" /><path
     class="fil0 str1"
     d="M 27.516356,239.39653 H 21.481595"
     id="path38"
     style="fill:none;fill-rule:evenodd;stroke:#da251d;stroke-width:0.2;stroke-linecap:round;stroke-linejoin:round;image-rendering:optimizeQuality;shape-rendering:geometricPrecision;text-rendering:geometricPrecision;stroke-dasharray:none" /><path
     class="fil0 str1"
     d="m 21.481595,239.39653 -0.442917,-0.0683"
     id="path39"
     style="fill:none;fill-rule:evenodd;stroke:#da251d;stroke-width:0.2;stroke-linecap:round;stroke-linejoin:round;image-rendering:optimizeQuality;shape-rendering:geometricPrecision;text-rendering:geometricPrecision;stroke-dasharray:none" /><path
     class="fil0 str1"
     d="m 21.038678,239.32821 -0.193777,-0.10246"
     id="path40"
     style="fill:none;fill-rule:evenodd;stroke:#da251d;stroke-width:0.2;stroke-linecap:round;stroke-linejoin:round;image-rendering:optimizeQuality;shape-rendering:geometricPrecision;text-rendering:geometricPrecision;stroke-dasharray:none" /><path
     class="fil0 str1"
     d="m 20.844901,239.22571 -0.193777,-0.10246"
     id="path41"
     style="fill:none;fill-rule:evenodd;stroke:#da251d;stroke-width:0.2;stroke-linecap:round;stroke-linejoin:round;image-rendering:optimizeQuality;shape-rendering:geometricPrecision;text-rendering:geometricPrecision;stroke-dasharray:none" /><path
     class="fil0 str1"
     d="m 20.651124,239.12323 -0.193777,-0.13666"
     id="path42"
     style="fill:none;fill-rule:evenodd;stroke:#da251d;stroke-width:0.2;stroke-linecap:round;stroke-linejoin:round;image-rendering:optimizeQuality;shape-rendering:geometricPrecision;text-rendering:geometricPrecision;stroke-dasharray:none" /><path
     class="fil0 str1"
     d="m 20.457347,238.98657 -0.166094,-0.20499"
     id="path43"
     style="fill:none;fill-rule:evenodd;stroke:#da251d;stroke-width:0.2;stroke-linecap:round;stroke-linejoin:round;image-rendering:optimizeQuality;shape-rendering:geometricPrecision;text-rendering:geometricPrecision;stroke-dasharray:none" /><path
     class="fil0 str1"
     d="m 20.291253,238.78158 -0.138411,-0.17081"
     id="path44"
     style="fill:none;fill-rule:evenodd;stroke:#da251d;stroke-width:0.2;stroke-linecap:round;stroke-linejoin:round;image-rendering:optimizeQuality;shape-rendering:geometricPrecision;text-rendering:geometricPrecision;stroke-dasharray:none" /><path
     class="fil0 str1"
     d="m 20.152842,238.61077 -0.110731,-0.23914"
     id="path45"
     style="fill:none;fill-rule:evenodd;stroke:#da251d;stroke-width:0.2;stroke-linecap:round;stroke-linejoin:round;image-rendering:optimizeQuality;shape-rendering:geometricPrecision;text-rendering:geometricPrecision;stroke-dasharray:none" /><path
     class="fil0 str1"
     d="m 20.042111,238.37163 -0.08304,-0.23916"
     id="path46"
     style="fill:none;fill-rule:evenodd;stroke:#da251d;stroke-width:0.2;stroke-linecap:round;stroke-linejoin:round;image-rendering:optimizeQuality;shape-rendering:geometricPrecision;text-rendering:geometricPrecision;stroke-dasharray:none" /><path
     class="fil0 str1"
     d="m 19.959065,238.13247 -0.08304,-0.23913"
     id="path47"
     style="fill:none;fill-rule:evenodd;stroke:#da251d;stroke-width:0.2;stroke-linecap:round;stroke-linejoin:round;image-rendering:optimizeQuality;shape-rendering:geometricPrecision;text-rendering:geometricPrecision;stroke-dasharray:none" /><path
     class="fil0 str1"
     d="m 19.876018,237.89334 -0.05537,-0.54663"
     id="path48"
     style="fill:none;fill-rule:evenodd;stroke:#da251d;stroke-width:0.2;stroke-linecap:round;stroke-linejoin:round;image-rendering:optimizeQuality;shape-rendering:geometricPrecision;text-rendering:geometricPrecision;stroke-dasharray:none" /><path
     class="fil0 str1"
     d="m 19.820652,237.34671 v -7.44766"
     id="path49"
     style="fill:none;fill-rule:evenodd;stroke:#da251d;stroke-width:0.2;stroke-linecap:round;stroke-linejoin:round;image-rendering:optimizeQuality;shape-rendering:geometricPrecision;text-rendering:geometricPrecision;stroke-dasharray:none" /><path
     class="fil0 str1"
     d="m 19.820652,229.89905 0.05537,-0.5466"
     id="path50"
     style="fill:none;fill-rule:evenodd;stroke:#da251d;stroke-width:0.2;stroke-linecap:round;stroke-linejoin:round;image-rendering:optimizeQuality;shape-rendering:geometricPrecision;text-rendering:geometricPrecision;stroke-dasharray:none" /><path
     class="fil0 str1"
     d="m 19.876018,229.35245 0.08304,-0.23916"
     id="path51"
     style="fill:none;fill-rule:evenodd;stroke:#da251d;stroke-width:0.2;stroke-linecap:round;stroke-linejoin:round;image-rendering:optimizeQuality;shape-rendering:geometricPrecision;text-rendering:geometricPrecision;stroke-dasharray:none" /><path
     class="fil0 str1"
     d="m 19.959065,229.11329 0.08304,-0.23914"
     id="path52"
     style="fill:none;fill-rule:evenodd;stroke:#da251d;stroke-width:0.2;stroke-linecap:round;stroke-linejoin:round;image-rendering:optimizeQuality;shape-rendering:geometricPrecision;text-rendering:geometricPrecision;stroke-dasharray:none" /><path
     class="fil0 str1"
     d="M 20.042111,228.87415 20.152842,228.635"
     id="path53"
     style="fill:none;fill-rule:evenodd;stroke:#da251d;stroke-width:0.2;stroke-linecap:round;stroke-linejoin:round;image-rendering:optimizeQuality;shape-rendering:geometricPrecision;text-rendering:geometricPrecision;stroke-dasharray:none" /><path
     class="fil0 str1"
     d="m 20.152842,228.635 0.138411,-0.17082"
     id="path54"
     style="fill:none;fill-rule:evenodd;stroke:#da251d;stroke-width:0.2;stroke-linecap:round;stroke-linejoin:round;image-rendering:optimizeQuality;shape-rendering:geometricPrecision;text-rendering:geometricPrecision;stroke-dasharray:none" /><path
     class="fil0 str1"
     d="m 20.291253,228.46418 0.166094,-0.20498"
     id="path55"
     style="fill:none;fill-rule:evenodd;stroke:#da251d;stroke-width:0.2;stroke-linecap:round;stroke-linejoin:round;image-rendering:optimizeQuality;shape-rendering:geometricPrecision;text-rendering:geometricPrecision;stroke-dasharray:none" /><path
     class="fil0 str1"
     d="m 20.457347,228.2592 0.193777,-0.13666"
     id="path56"
     style="fill:none;fill-rule:evenodd;stroke:#da251d;stroke-width:0.2;stroke-linecap:round;stroke-linejoin:round;image-rendering:optimizeQuality;shape-rendering:geometricPrecision;text-rendering:geometricPrecision;stroke-dasharray:none" /><path
     class="fil0 str1"
     d="m 20.651124,228.12254 0.193777,-0.10246"
     id="path57"
     style="fill:none;fill-rule:evenodd;stroke:#da251d;stroke-width:0.2;stroke-linecap:round;stroke-linejoin:round;image-rendering:optimizeQuality;shape-rendering:geometricPrecision;text-rendering:geometricPrecision;stroke-dasharray:none" /><path
     class="fil0 str1"
     d="m 20.844901,228.02006 0.193777,-0.10246"
     id="path58"
     style="fill:none;fill-rule:evenodd;stroke:#da251d;stroke-width:0.2;stroke-linecap:round;stroke-linejoin:round;image-rendering:optimizeQuality;shape-rendering:geometricPrecision;text-rendering:geometricPrecision;stroke-dasharray:none" /><path
     class="fil0 str1"
     d="m 21.038678,227.91758 0.442917,-0.0684"
     id="path59"
     style="fill:none;fill-rule:evenodd;stroke:#da251d;stroke-width:0.2;stroke-linecap:round;stroke-linejoin:round;image-rendering:optimizeQuality;shape-rendering:geometricPrecision;text-rendering:geometricPrecision;stroke-dasharray:none" /><path
     class="fil1"
     d="m 51.311317,209.5875 0.431763,1.95563 h 0.507957 l 0.431764,-1.95563 v 1.95563 h 0.533354 v -2.48899 h -0.787333 l -0.431763,1.98103 -0.457162,-1.98103 h -0.761935 v 2.48899 h 0.533355 z m 2.311204,1.95563 h 0.507957 v -2.48899 h -0.507957 z m 0.990516,0 h 0.990516 c 0.35557,0 0.609549,-0.10159 0.761936,-0.30477 0.203183,-0.22858 0.304774,-0.55876 0.304774,-0.93972 0,-0.38097 -0.101591,-0.73654 -0.304774,-0.96512 -0.152387,-0.20318 -0.380968,-0.27938 -0.761936,-0.27938 h -0.990516 z m 0.507957,-0.43176 v -1.62546 h 0.482559 c 0.380968,0 0.558753,0.25397 0.558753,0.81273 0,0.53335 -0.177785,0.81273 -0.558753,0.81273 z m 1.930237,0.43176 h 0.507957 v -2.48899 h -0.507957 z m 0.507957,-2.48899 -0.507957,2.48899 z"
     id="path60"
     style="fill:#000000;fill-rule:evenodd;stroke-width:0.0253979;image-rendering:optimizeQuality;shape-rendering:geometricPrecision;text-rendering:geometricPrecision" /><path
     class="fil1"
     d="m 99.642378,211.16216 0.15239,0.50796 h 0.533352 l -0.863522,-2.51439 h -0.55876 l -0.88892,2.51439 h 0.50796 l 0.177779,-0.50796 z m -0.15239,-0.43176 h -0.63494 l 0.30477,-0.96512 z m 2.615982,-1.57467 v 1.70166 c 0,0.30477 -0.15238,0.45716 -0.45716,0.45716 -0.33017,0 -0.48256,-0.15239 -0.48256,-0.45716 v -1.70166 h -0.50795 v 1.70166 c 0,0.27938 0.0762,0.48256 0.22858,0.63495 0.20318,0.15238 0.45716,0.25397 0.76193,0.25397 0.30478,0 0.55875,-0.10159 0.73654,-0.25397 0.17778,-0.15239 0.25398,-0.35557 0.25398,-0.63495 v -1.70166 z m 1.01592,2.51439 h 0.99051 c 0.35557,0 0.60955,-0.10159 0.76194,-0.30477 0.20318,-0.22858 0.30477,-0.55876 0.30477,-0.96512 0,-0.38097 -0.10159,-0.71114 -0.30477,-0.93972 -0.15239,-0.20318 -0.38097,-0.30478 -0.76194,-0.30478 h -0.99051 z m 0.50795,-0.43176 v -1.65086 h 0.48256 c 0.38097,0 0.55876,0.27937 0.55876,0.83813 0,0.53335 -0.17779,0.81273 -0.55876,0.81273 z m 1.93024,0.43176 h 0.50796 v -2.51439 h -0.50796 z m 2.05723,-2.53978 c -0.35557,0 -0.63495,0.12699 -0.83813,0.33017 -0.22858,0.25398 -0.35557,0.60955 -0.35557,0.96512 0,0.38096 0.12699,0.73653 0.35557,0.96511 0.20318,0.22859 0.48256,0.35557 0.83813,0.35557 0.35557,0 0.63494,-0.12698 0.86352,-0.35557 0.20319,-0.22858 0.33018,-0.58415 0.33018,-0.93972 0,-0.38096 -0.12699,-0.73653 -0.33018,-0.99051 -0.22858,-0.22858 -0.50795,-0.33017 -0.86352,-0.33017 z m 0,0.43176 c 0.43176,0 0.68574,0.35557 0.68574,0.88892 0,0.50796 -0.27938,0.86353 -0.68574,0.86353 -0.40637,0 -0.68575,-0.35557 -0.68575,-0.88892 0,-0.50796 0.27938,-0.86353 0.68575,-0.86353 z m 0,0 z"
     id="path61"
     style="fill:#000000;fill-rule:evenodd;stroke-width:0.0253979;image-rendering:optimizeQuality;shape-rendering:geometricPrecision;text-rendering:geometricPrecision" /><path
     class="fil1"
     d="m 92.705899,216.03855 c -0.45717,0 -0.73654,0.33017 -0.73654,0.81273 0,0.50796 0.27937,0.81273 0.76193,0.81273 0.45717,0 0.73654,-0.30477 0.73654,-0.78733 0,-0.53335 -0.27937,-0.83813 -0.76193,-0.83813 z m 0.0254,0.33017 c 0.20319,0 0.35557,0.20319 0.35557,0.48256 0,0.30478 -0.15238,0.50796 -0.35557,0.50796 -0.22858,0 -0.38096,-0.20318 -0.38096,-0.50796 0,-0.27937 0.15238,-0.48256 0.38096,-0.48256 z m 2.4128,1.2445 v -1.54927 h -0.40637 v 0.96512 c 0,0.17778 -0.12699,0.30477 -0.33017,0.30477 -0.15239,0 -0.25398,-0.10159 -0.25398,-0.27937 v -0.99052 h -0.38096 v 1.06671 c 0,0.35557 0.17778,0.53335 0.50795,0.53335 0.20319,0 0.35557,-0.0762 0.45716,-0.22858 v 0.17779 z m 1.06671,-1.52387 h -0.22858 v -0.40637 h -0.40637 v 0.40637 h -0.20318 v 0.27937 h 0.20318 v 0.93972 c 0,0.25398 0.12699,0.35557 0.40637,0.35557 0.0762,0 0.15239,0 0.22858,-0.0254 v -0.27938 c -0.0508,0 -0.0762,0.0254 -0.10159,0.0254 -0.10159,0 -0.12699,-0.0508 -0.12699,-0.17779 v -0.83813 h 0.22858 z m 0,0 z"
     id="path64"
     style="fill:#000000;fill-rule:evenodd;stroke-width:0.0253979;image-rendering:optimizeQuality;shape-rendering:geometricPrecision;text-rendering:geometricPrecision" /><path
     class="fil1"
     d="m 111.97003,217.71481 h 0.40637 v -1.52387 h -0.40637 z m 0,-1.72705 h 0.40637 v -0.35557 h -0.40637 z m 0.76194,0.20318 v 1.52387 h 0.40636 v -0.91432 c 0,-0.17779 0.12699,-0.30478 0.33017,-0.30478 0.17779,0 0.25398,0.10159 0.25398,0.27938 v 0.93972 h 0.40637 v -1.01591 c 0,-0.35557 -0.20318,-0.53336 -0.53336,-0.53336 -0.20318,0 -0.33017,0.0762 -0.45716,0.22858 v -0.20318 z m 0,0 z"
     id="path65"
     style="fill:#000000;fill-rule:evenodd;stroke-width:0.0253979;image-rendering:optimizeQuality;shape-rendering:geometricPrecision;text-rendering:geometricPrecision" /><path
     class="fil1"
     d="M 11.419399,233.74085 H 9.9971203 v 0.35557 h 1.0159137 c -0.12699,0.12699 -0.380968,0.50796 -0.457162,0.66035 -0.126989,0.30477 -0.203183,0.58415 -0.253978,0.99051 h 0.380968 c 0.0508,-0.63494 0.253978,-1.1175 0.736537,-1.70165 z m 0.152387,1.42228 h 0.787334 v -0.38097 h -0.787334 z m 1.549269,-0.78733 v 1.37148 h 0.406366 v -2.00643 h -0.253979 c -0.07619,0.22858 -0.279376,0.35557 -0.634946,0.35557 v 0.27938 z m 2.362,1.01591 h -0.838129 c 0.0508,-0.10159 0.101592,-0.15238 0.406366,-0.38096 0.35557,-0.25398 0.457161,-0.40637 0.457161,-0.66035 0,-0.40636 -0.279376,-0.66034 -0.71114,-0.66034 -0.406365,0 -0.660344,0.25398 -0.660344,0.68574 0,0.0254 0,0.0254 0,0.0762 h 0.406366 v -0.0762 c 0,-0.22858 0.101591,-0.35557 0.279376,-0.35557 0.177785,0 0.279376,0.12699 0.279376,0.33017 0,0.22858 -0.07619,0.30478 -0.507957,0.63495 -0.355569,0.22858 -0.457161,0.40636 -0.482559,0.76193 h 1.371484 z m 1.269893,0.35557 0.71114,-2.05722 h -0.431764 l -0.457161,1.54927 -0.457162,-1.54927 h -0.431763 l 0.71114,2.05722 z m 0,0 z"
     id="path66"
     style="fill:#000000;fill-rule:evenodd;stroke-width:0.0253979;image-rendering:optimizeQuality;shape-rendering:geometricPrecision;text-rendering:geometricPrecision" /><path
     class="fil1"
     d="m 10.403485,238.05849 c 0.126989,0 0.126989,0 0.203183,0.0254 0.101591,0.0254 0.152387,0.1016 0.152387,0.22859 0,0.15238 -0.07619,0.25397 -0.228581,0.25397 -0.152387,0 -0.22858,-0.10159 -0.22858,-0.25397 H 9.9717223 c 0,0.30477 0.2285797,0.50795 0.5587517,0.50795 0.330172,0 0.558753,-0.20318 0.558753,-0.50795 0,-0.20319 -0.07619,-0.30478 -0.253978,-0.40637 0.152387,-0.10159 0.203182,-0.20318 0.203182,-0.33017 0,-0.27938 -0.203182,-0.45716 -0.507957,-0.45716 -0.177785,0 -0.355569,0.0762 -0.431763,0.17778 -0.07619,0.10159 -0.1015907,0.20318 -0.1015907,0.35557 v 0.0254 h 0.3047737 c 0,-0.10159 0,-0.15239 0.0254,-0.17779 0.0254,-0.0762 0.101591,-0.12698 0.203182,-0.12698 0.12699,0 0.177785,0.0762 0.177785,0.22858 0,0.15238 -0.07619,0.22858 -0.279376,0.22858 h -0.0254 z m 1.396882,-0.93972 c -0.177785,0 -0.304774,0.0762 -0.406366,0.20318 -0.101591,0.12699 -0.152387,0.35557 -0.152387,0.66034 0,0.27938 0.0508,0.48256 0.126989,0.60955 0.101592,0.15239 0.253979,0.22858 0.431764,0.22858 0.177785,0 0.330172,-0.0508 0.431763,-0.20318 0.07619,-0.12699 0.12699,-0.33017 0.12699,-0.63495 0,-0.27937 -0.0254,-0.48256 -0.12699,-0.60954 -0.07619,-0.15239 -0.22858,-0.25398 -0.431763,-0.25398 z m 0,0.25398 c 0.07619,0 0.152387,0.0508 0.203183,0.15238 0.0254,0.0508 0.05079,0.22858 0.05079,0.45716 0,0.17779 -0.0254,0.35557 -0.05079,0.43177 -0.0254,0.10159 -0.101592,0.15238 -0.203183,0.15238 -0.07619,0 -0.152387,-0.0508 -0.177785,-0.12699 -0.0254,-0.0762 -0.0508,-0.25397 -0.0508,-0.45716 0,-0.20318 0.0254,-0.38096 0.0508,-0.45716 0.0254,-0.0762 0.101591,-0.15238 0.177785,-0.15238 z m 1.269892,-0.25398 c -0.177785,0 -0.330172,0.0762 -0.431763,0.20318 -0.07619,0.12699 -0.126989,0.35557 -0.126989,0.66034 0,0.27938 0.0508,0.48256 0.126989,0.60955 0.101591,0.15239 0.253978,0.22858 0.431763,0.22858 0.177785,0 0.330173,-0.0508 0.431764,-0.20318 0.07619,-0.12699 0.126989,-0.33017 0.126989,-0.63495 0,-0.27937 -0.0508,-0.48256 -0.126989,-0.60954 -0.07619,-0.15239 -0.228581,-0.25398 -0.431764,-0.25398 z m 0,0.25398 c 0.07619,0 0.152388,0.0508 0.203183,0.15238 0.0254,0.0508 0.0508,0.22858 0.0508,0.45716 0,0.17779 -0.0254,0.35557 -0.0508,0.43177 -0.0508,0.10159 -0.101591,0.15238 -0.203183,0.15238 -0.07619,0 -0.152387,-0.0508 -0.177785,-0.12699 -0.0254,-0.0762 -0.0508,-0.25397 -0.0508,-0.45716 0,-0.20318 0.0254,-0.38096 0.0254,-0.45716 0.0508,-0.0762 0.126989,-0.15238 0.203182,-0.15238 z m 0.787334,0.17778 v 1.2191 h 0.330172 v -0.73654 c 0,-0.15239 0.07619,-0.22858 0.203183,-0.22858 0.101591,0 0.177785,0.0508 0.177785,0.15239 v 0.81273 h 0.330172 v -0.73654 c 0,-0.15239 0.07619,-0.22858 0.203182,-0.22858 0.101592,0 0.177785,0.0508 0.177785,0.15239 v 0.81273 h 0.330172 v -0.86353 c 0,-0.22858 -0.152387,-0.38097 -0.406365,-0.38097 -0.152387,0 -0.253979,0.0508 -0.35557,0.17779 -0.0508,-0.10159 -0.177785,-0.17779 -0.330172,-0.17779 -0.152387,0 -0.253979,0.0508 -0.330172,0.17779 v -0.15239 z m 3.022344,0.88892 0.126989,0.33018 h 0.330172 l -0.558752,-1.65086 h -0.380968 l -0.584151,1.65086 h 0.330172 l 0.12699,-0.33018 z m -0.07619,-0.27937 h -0.431763 l 0.203183,-0.66035 z m 0,0 z"
     id="path67"
     style="fill:#000000;fill-rule:evenodd;stroke-width:0.0253979;image-rendering:optimizeQuality;shape-rendering:geometricPrecision;text-rendering:geometricPrecision" /><path
     class="fil1"
     d="m 23.064449,226.85356 h 0.812731 c 0.304774,0 0.507957,-0.0762 0.660344,-0.25398 0.152387,-0.17778 0.253979,-0.48256 0.253979,-0.78733 0,-0.33017 -0.101592,-0.60955 -0.253979,-0.81273 -0.152387,-0.15239 -0.35557,-0.22858 -0.660344,-0.22858 h -0.812731 z m 0.431763,-0.35557 v -1.37148 h 0.380968 c 0.304774,0 0.482559,0.22858 0.482559,0.68574 0,0.45716 -0.177785,0.68574 -0.482559,0.68574 z m 3.352516,-1.01591 c -0.0254,-0.17779 -0.05079,-0.30478 -0.152387,-0.43177 -0.152387,-0.20318 -0.406365,-0.30477 -0.711139,-0.30477 -0.584151,0 -0.965119,0.40637 -0.965119,1.09211 0,0.66034 0.380968,1.06671 0.939721,1.06671 0.507957,0 0.863527,-0.27938 0.888924,-0.76194 h -0.406365 c -0.0254,0.25398 -0.203183,0.40637 -0.457161,0.40637 -0.330173,0 -0.533355,-0.25398 -0.533355,-0.71114 0,-0.45716 0.203182,-0.73654 0.533355,-0.73654 0.152387,0 0.279376,0.0508 0.355569,0.15239 0.0508,0.0508 0.07619,0.10159 0.101592,0.22858 z m 0,0 z"
     id="path68"
     style="fill:#000000;fill-rule:evenodd;stroke-width:0.0253979;image-rendering:optimizeQuality;shape-rendering:geometricPrecision;text-rendering:geometricPrecision" /><path
     class="fil1"
     d="m 10.733657,232.72494 c -0.22858,-0.0254 -0.380968,-0.10159 -0.507957,-0.25398 -0.07619,-0.0762 -0.126989,-0.12699 -0.152387,-0.20318 -0.1777847,-0.35557 -0.07619,-0.78734 0.228581,-1.01592 0.126989,-0.10159 0.279376,-0.15238 0.431763,-0.15238 0.304774,-0.0508 0.634946,0.12699 0.812731,0.43176 0.0254,0.0508 0.0508,0.17778 0.07619,0.22858 v 0.0254 h 1.473075 v 0 c 0,-0.0254 0.0254,-0.15239 0.0508,-0.20318 0.0254,-0.0254 0.0254,-0.0508 0.0254,-0.0508 0,0 0.0254,-0.0254 0.0254,-0.0508 0.126989,-0.20318 0.304774,-0.30477 0.507957,-0.38096 0.07619,0 0.101591,0 0.203182,0 0.07619,-0.0254 0.12699,0 0.152388,0 0.101591,0.0254 0.203182,0.0508 0.279376,0.10159 l 0.0254,0.0254 v 0.22858 l -0.0254,-0.0254 c -0.07619,-0.10159 -0.203183,-0.15239 -0.330172,-0.17779 -0.0508,0 -0.177785,0 -0.228581,0 -0.22858,0.0508 -0.431763,0.22858 -0.507957,0.45716 -0.101591,0.33018 0.101592,0.71114 0.431764,0.81274 0.126989,0.0508 0.279376,0.0508 0.406365,0 0.07619,-0.0254 0.177785,-0.0762 0.228581,-0.15239 l 0.0254,-0.0254 v 0.22858 l -0.0254,0.0254 c -0.0508,0.0254 -0.152387,0.0762 -0.228581,0.10159 -0.253978,0.0762 -0.558752,0 -0.787333,-0.20318 -0.101591,-0.12699 -0.177785,-0.25398 -0.228581,-0.40637 0,-0.0254 0,-0.0762 0,-0.10159 v -0.0254 h -0.533355 c -0.279376,0 -0.609548,0 -0.711139,0 h -0.228581 v 0.0762 c -0.0254,0.17778 -0.126989,0.35557 -0.279376,0.48256 -0.101592,0.0762 -0.177785,0.12699 -0.304775,0.15238 -0.101591,0.0508 -0.22858,0.0508 -0.304774,0.0508 z m 0.228581,-0.17779 c 0.304774,-0.10159 0.533355,-0.38096 0.482559,-0.71114 -0.0254,-0.25397 -0.177785,-0.48256 -0.431763,-0.55875 -0.07619,-0.0254 -0.152388,-0.0254 -0.253979,-0.0254 -0.152387,0 -0.304774,0.0762 -0.431763,0.17779 -0.07619,0.10159 -0.12699,0.20318 -0.152387,0.33017 -0.0254,0.0508 -0.0254,0.22858 0,0.30477 0.0508,0.17779 0.177784,0.33018 0.330172,0.43177 0.0508,0.0254 0.126989,0.0508 0.177785,0.0508 0.0508,0.0254 0.22858,0 0.279376,0 z m 0,0 z"
     id="path69"
     style="fill:#000000;fill-rule:evenodd;stroke-width:0.0253979;image-rendering:optimizeQuality;shape-rendering:geometricPrecision;text-rendering:geometricPrecision" /><path
     class="fil1"
     d="m 16.651356,232.72494 c -0.126989,-0.0254 -0.203183,-0.0508 -0.304774,-0.0762 -0.177785,-0.1016 -0.35557,-0.27938 -0.406365,-0.48256 -0.0254,-0.0762 -0.0508,-0.17779 -0.0508,-0.20319 v -0.0254 h -0.838129 -0.812731 l -0.0254,0.0508 c -0.0254,0.0508 -0.07619,0.12699 -0.152387,0.15239 -0.101592,0.0254 -0.228581,0 -0.304775,-0.10159 -0.0254,-0.0508 -0.05079,-0.10159 -0.05079,-0.15239 0,-0.10159 0.05079,-0.17779 0.152387,-0.22858 0.0508,-0.0254 0.0508,-0.0254 0.126989,-0.0254 0.0508,0 0.07619,0 0.101591,0.0254 0.0254,0 0.07619,0.0508 0.101592,0.0762 l 0.0254,0.0508 h 0.787333 c 0.431763,0 0.812731,0 0.838129,-0.0254 h 0.07619 v -0.0254 c 0.0254,-0.15238 0.101591,-0.30477 0.22858,-0.40636 0.304774,-0.30478 0.812731,-0.33018 1.142904,-0.0254 0.203182,0.20318 0.304774,0.48256 0.253978,0.76193 -0.07619,0.33018 -0.330172,0.58416 -0.660344,0.63495 -0.0508,0.0254 -0.203183,0.0254 -0.228581,0.0254 z m 0.228581,-0.17779 c 0.101591,-0.0254 0.228581,-0.10159 0.304774,-0.17778 0.07619,-0.10159 0.152387,-0.20318 0.177785,-0.33017 0,-0.0762 0,-0.20319 0,-0.27938 -0.0508,-0.22858 -0.203183,-0.40637 -0.431763,-0.48256 -0.152387,-0.0508 -0.35557,-0.0508 -0.507957,0.0254 -0.12699,0.0762 -0.228581,0.20318 -0.304775,0.35557 -0.0508,0.12699 -0.0508,0.35557 0,0.50796 0.0508,0.10159 0.12699,0.20318 0.203183,0.25397 0.07619,0.0762 0.203183,0.12699 0.279377,0.12699 0.0508,0.0254 0.22858,0 0.279376,0 z m 0,0 z"
     id="path70"
     style="fill:#000000;fill-rule:evenodd;stroke-width:0.0253979;image-rendering:optimizeQuality;shape-rendering:geometricPrecision;text-rendering:geometricPrecision" /><path
     class="fil1"
     d="m 10.555872,231.78522 h 0.533355 v 0.17778 h -0.533355 z"
     id="path71"
     style="fill:#000000;fill-rule:evenodd;stroke-width:0.0253979;image-rendering:optimizeQuality;shape-rendering:geometricPrecision;text-rendering:geometricPrecision" /><path
     class="fil1"
     d="m 17.210109,231.81062 h -0.406366 v -0.40637 h -0.152387 v 0.40637 h -0.406365 v 0.15238 h 0.406365 v 0.40637 h 0.152387 V 231.963 h 0.406366 z m 0,0 z"
     id="path72"
     style="fill:#000000;fill-rule:evenodd;stroke-width:0.0253979;image-rendering:optimizeQuality;shape-rendering:geometricPrecision;text-rendering:geometricPrecision" /><path
     class="fil0 str0"
     d="m 74.118586,229.85498 c 0,5.38435 -4.36843,9.75278 -9.752775,9.75278 -5.384344,0 -9.752774,-4.36843 -9.752774,-9.75278 0,-5.38434 4.36843,-9.75277 9.752774,-9.75277 5.384345,0 9.752775,4.36843 9.752775,9.75277 z"
     id="path200"
     style="fill:none;fill-rule:evenodd;stroke:#da251d;stroke-width:0.2;image-rendering:optimizeQuality;shape-rendering:geometricPrecision;text-rendering:geometricPrecision;stroke-dasharray:none" /><path
     class="fil0 str0"
     d="m 53.343145,229.85498 c 0,5.38435 -4.368431,9.75278 -9.752775,9.75278 -5.384344,0 -9.752774,-4.36843 -9.752774,-9.75278 0,-5.38434 4.36843,-9.75277 9.752774,-9.75277 5.384344,0 9.752775,4.36843 9.752775,9.75277 z"
     id="path201"
     style="fill:none;fill-rule:evenodd;stroke:#da251d;stroke-width:0.2;image-rendering:optimizeQuality;shape-rendering:geometricPrecision;text-rendering:geometricPrecision;stroke-dasharray:none" /><path
     class="fil0 str0"
     d="m 119.64018,232.75034 c 0,3.73348 -3.02234,6.75582 -6.73043,6.75582 -3.73348,0 -6.75583,-3.02234 -6.75583,-6.75582 0,-3.73349 3.02235,-6.75583 6.75583,-6.75583 3.70809,0 6.73043,3.02234 6.73043,6.75583 z"
     id="path202"
     style="fill:none;fill-rule:evenodd;stroke:#da251d;stroke-width:0.2;image-rendering:optimizeQuality;shape-rendering:geometricPrecision;text-rendering:geometricPrecision;stroke-dasharray:none" /><path
     class="fil0 str0"
     d="m 100.75701,232.75034 c 0,3.73348 -3.047741,6.75582 -6.781221,6.75582 -3.73349,0 -6.75583,-3.02234 -6.75583,-6.75582 0,-3.73349 3.02234,-6.75583 6.75583,-6.75583 3.73348,0 6.781221,3.02234 6.781221,6.75583 z"
     id="path203"
     style="fill:none;fill-rule:evenodd;stroke:#da251d;stroke-width:0.2;image-rendering:optimizeQuality;shape-rendering:geometricPrecision;text-rendering:geometricPrecision;stroke-dasharray:none" /><path
     class="fil1"
     d="m 33.939187,213.72735 h 40.179399 v 0.35557 H 33.939187 Z"
     id="path204"
     style="fill:#000000;fill-rule:evenodd;stroke-width:0.0253979;image-rendering:optimizeQuality;shape-rendering:geometricPrecision;text-rendering:geometricPrecision" /><path
     class="fil1"
     d="m 87.162347,213.67655 h 32.503233 v 0.35557 H 87.162347 Z"
     id="path205"
     style="fill:#000000;fill-rule:evenodd;stroke-width:0.0247927;image-rendering:optimizeQuality;shape-rendering:geometricPrecision;text-rendering:geometricPrecision" /><g
     id="g1772"
     transform="matrix(0.01466413,0,0,0.01466413,391.39975,117.61246)"
     style="display:inline"><g
       aria-label="M"
       transform="matrix(14.691612,0,0,14.691612,3282.7718,6376.6299)"
       id="flowRoot4834-61"
       style="font-weight:500;line-height:0.01%;font-family:'Atari ST 8x16 System Font';-inkscape-font-specification:'Atari ST 8x16 System Font, Medium';letter-spacing:0px;word-spacing:0px;stroke-width:1px"><path
         d="m -223.44531,-414.15625 v -15 h 2.5 2.5 v 2.5 2.5 h 1.25 1.25 v 2.5 2.5 h 1.25 1.25 v -2.5 -2.5 h 1.25 1.25 v -2.5 -2.5 h 2.5 2.5 v 15 15 h -2.5 -2.5 v -8.75 -8.75 h -1.25 -1.25 v 2.5 2.5 h -1.25 -1.25 v -2.5 -2.5 h -1.25 -1.25 v 8.75 8.75 h -2.5 -2.5 z"
         style="font-size:40px;line-height:1.25"
         id="path1902" /></g><g
       aria-label="+"
       id="text4842-8"
       style="font-weight:500;line-height:0%;font-family:'Atari ST 8x16 System Font';-inkscape-font-specification:'Atari ST 8x16 System Font, Medium';letter-spacing:0px;word-spacing:0px;stroke-width:1px"><path
         d="M 2164.1458,109.61243 V 73.512306 h 24.0668 24.0667 v 36.100124 36.10012 h 24.0668 24.0667 v 24.06675 24.06675 h -24.0667 -24.0668 v 36.10013 36.10012 h -24.0667 -24.0668 v -36.10012 -36.10013 h -24.0667 -24.0668 V 169.7793 145.71255 h 24.0668 24.0667 z"
         style="font-size:385.068px;line-height:1.25"
         id="path1905" /></g><g
       aria-label="DULAR"
       id="text4850-7"
       style="font-weight:500;line-height:0%;font-family:'Atari ST 8x16 System Font';-inkscape-font-specification:'Atari ST 8x16 System Font, Medium';letter-spacing:0px;word-spacing:0px;stroke-width:1px"><path
         d="m 637.76861,292.00698 v -220.374 h 73.458 73.458 v 18.3645 18.3645 h 18.3645 18.3645 v 18.3645 18.3645 h 18.3645 18.3645 v 146.916 146.916 h -18.3645 -18.3645 v 18.3645 18.3645 h -18.3645 -18.3645 v 18.3645 18.3645 h -73.458 -73.458 z m 110.187,-128.5515 v -18.3645 h -18.3645 -18.3645 v 146.916 146.916 h 18.3645 18.3645 v -18.3645 -18.3645 h 18.3645 18.3645 v -110.187 -110.187 h -18.3645 -18.3645 z"
         style="font-size:587.664px;line-height:1.25"
         id="path1908" /><path
         d="M 931.59948,273.64248 V 71.63298 h 36.729 36.72902 v 183.645 183.645 h 36.729 36.729 v -183.645 -183.645 h 36.729 36.729 v 202.0095 202.0095 h -18.3645 -18.3645 v 18.3645 18.3645 h -73.458 -73.45802 v -18.3645 -18.3645 h -18.3645 -18.3645 z"
         style="font-size:587.664px;line-height:1.25"
         id="path1910" /><path
         d="m 1225.4304,292.00698 v -220.374 h 36.729 36.729 v 183.645 183.645 h 73.458 73.458 v 36.729 36.729 h -110.187 -110.187 z"
         style="font-size:587.664px;line-height:1.25"
         id="path1912" /><path
         d="m 1592.7192,89.99748 v -18.3645 h 36.729 36.729 v 18.3645 18.3645 h 18.3645 18.3645 v 18.3645 18.3645 h 18.3645 18.3645 v 183.645 183.645 h -36.729 -36.729 v -73.458 -73.458 h -36.729 -36.729 v 73.458 73.458 h -36.729 -36.729 v -183.645 -183.645 h 18.3645 18.3645 v -18.3645 -18.3645 h 18.3645 18.3645 z m 73.458,146.916 v -55.0935 h -36.729 -36.729 v 55.0935 55.0935 h 36.729 36.729 z"
         style="font-size:587.664px;line-height:1.25"
         id="path1914" /><path
         d="m 1776.3631,292.00698 v -220.374 h 91.8225 91.8225 v 18.3645 18.3645 h 18.3645 18.3645 v 91.8225 91.8225 h -18.3645 -18.3645 v 36.729 36.729 h 18.3645 18.3645 v 36.729 36.729 h 18.3645 18.3645 v 36.729 36.729 h -36.729 -36.729 v -36.729 -36.729 h -18.3645 -18.3645 v -36.729 -36.729 h -18.3645 -18.3645 v -18.3645 -18.3645 h -18.3645 -18.3645 v 91.8225 91.8225 h -36.729 -36.729 z m 146.916,-91.8225 v -55.0935 h -36.729 -36.729 v 55.0935 55.0935 h 36.729 36.729 z"
         style="font-size:587.664px;line-height:1.25"
         id="path1916" /></g><path
       d="m 333.90661,583.97643 c -6.87639,0.5608 -12.90491,-5.2173 -13.92424,-13.3458 -0.25398,-2.0253 -0.60879,-4.5362 -0.78849,-5.5798 -1.21735,-7.0699 -1.28057,-18.0152 -0.15641,-27.083 1.89285,-15.26822 4.26467,-29.9372 6.53931,-40.44367 2.79955,-12.93098 14.2787,-57.65275 16.75921,-65.29238 1.45683,-4.48684 7.16466,-22.53701 7.72622,-24.43301 0.20867,-0.70452 1.44205,-4.25491 2.74089,-7.88976 1.29881,-3.63486 2.59278,-7.41733 2.87546,-8.40551 0.43235,-1.51142 -0.95953,-4.19271 -8.76629,-16.88719 -9.40421,-15.88713 -13.13574,-24.49491 -17.46855,-40.23831 -0.92686,-3.51628 -1.20193,-6.8624 -2.1837,-20.23412 0.13895,-6.16134 -0.66366,-13.79062 0.4383,-20.29016 1.4225,-13.91665 5.49086,-26.59472 9.01402,-38.96158 6.18191,-19.54808 21.09069,-44.02814 33.95543,-57.6149 3.58346,-5.20569 19.8005,-18.22829 30.23237,-24.45624 9.30807,-5.0537 33.10368,-16.48947 41.98451,-16.63232 29.32026,-7.2249 39.2708,-4.00762 67.18603,5.57574 11.7381,5.80751 16.77547,15.90079 16.09516,20.36114 -1.03596,6.07571 -4.25811,17.0049 -6.98011,25.22701 -27.18521,74.26796 -60.0505,156.15964 -97.44911,215.92737 -3.73968,3.51268 -11.71508,1.95115 -15.74184,0.62618 -7.15152,-2.61837 -25.87522,-12.26521 -26.78017,-13.79769 -0.18221,-0.30856 -1.3709,-1.03324 -2.64153,-1.6104 l -2.31022,-1.04939 -1.85003,8.23824 c -3.4259,15.25553 -5.48179,26.02488 -6.23239,32.64674 -1.04417,8.79621 -2.16059,18.89493 0.0787,26.7372 2.52558,9.88091 5.23028,12.4368 14.63103,7.66138 12.95999,-9.05224 19.43588,-17.58003 28.28216,-28.82945 10.84891,-13.79116 16.05422,-23.0275 24.61597,-37.45861 14.56891,-24.75278 31.98622,-58.70498 43.49819,-82.74559 11.0685,-22.63918 20.80245,-47.62507 28.72512,-67.62556 11.52538,-31.69863 23.58403,-66.74005 31.648,-96.51987 5.34487,-21.02488 8.01252,-37.87707 8.21938,-51.92428 0.7294,-6.31107 0.57936,-16.35553 -5.54021,-19.6104 -3.5033,-1.7242 -8.34649,-0.0804 -14.90119,5.05755 -3.09047,2.42247 -6.133,5.12712 -6.76116,6.01035 -0.62817,0.88323 -1.91998,2.27987 -2.87068,3.10365 -1.85929,1.6111 -6.77299,7.34278 -9.5929,11.18986 -8.36373,11.41033 -11.81924,15.55968 -12.75684,15.31829 -5.75036,-4.27544 -11.10374,-10.74356 -14.87874,-15.24361 -1.49449,-2.56033 -1.37902,-3.18332 1.60496,-8.63974 C 501.38935,79.84446 523.0851,47.47044 550.4656,16.0101 558.49144,8.09776 571.16813,0.21165 576.20135,0 c 10.0007,0.57545 14.10619,9.3935 15.42619,17.78256 0.92485,6.14712 1.11216,18.72268 0.38512,25.84897 -1.56179,15.30823 -3.32806,27.48914 -5.80882,40.05998 -7.65064,38.92945 -21.98927,79.38781 -32.35803,114.6801 l 6.15203,8.12477 c 12.44894,16.44083 21.17616,40.41871 23.01424,63.23139 0.65422,8.12079 0.75882,14.72006 0.30366,19.15697 -2.25942,22.02119 -2.51964,23.37314 -7.83239,40.68468 -1.46595,7.64826 -5.18353,13.19369 -7.80733,19.65327 -2.09787,5.20457 -3.73665,8.03966 -10.70728,18.52354 -6.86637,10.32708 -6.9969,10.50065 -12.29429,16.35017 -13.09311,14.45776 -17.94507,18.48556 -33.31439,27.65561 -13.80984,8.23956 -19.60959,10.84513 -30.15258,13.54612 -11.73886,3.00738 -16.68826,3.93792 -26.06971,4.90139 -2.90971,0.29882 -3.26575,0.55129 -4.42028,3.13446 -3.83185,7.22742 -7.89563,15.0507 -11.67535,21.44917 -3.3735,5.64018 -6.16952,10.47298 -9.16961,15.84931 -1.18074,2.11594 -3.88894,6.68947 -6.01822,10.16341 -8.77681,14.31942 -13.58625,22.04182 -15.30246,24.57077 -2.42724,4.12177 -5.11757,8.23005 -7.59613,11.92528 -5.07144,6.99745 -10.19317,14.52881 -14.99201,21.06521 -3.50132,4.8254 -4.29322,5.83 -6.87183,8.7179 -5.18474,7.0623 -10.37577,12.5753 -14.59236,16.8835 -11.01841,11.2421 -23.5528,19.4438 -30.59293,20.0179 z m 56.065,-71.65616 c 10.86737,-14.76369 15.62547,-22.52358 17.3398,-25.021 -0.44317,-0.11409 -28.30408,35.71092 -31.17239,38.89756 -11.61921,12.9089 -19.80472,18.868 -27.01453,17.6235 -2.47976,-0.428 -7.02294,-3.6315 -8.35912,-5.8943 -5.7888,-16.53136 -4.0812,-33.15631 -1.61234,-49.04222 0.14933,-3.51603 8.8319,-37.4306 8.15272,-38.45995 -0.65779,2.43463 -8.63191,34.23404 -8.91939,35.87787 -2.00445,11.44773 -3.14133,14.02282 -4.11867,25.37335 -0.39566,13.68266 0.95856,19.88685 2.37469,26.34885 -0.27067,0.5152 0.58462,2.7423 1.90064,4.9493 4.85455,8.141 11.90282,7.6188 26.01385,-1.9275 4.5811,-3.5039 22.73879,-24.10556 25.41474,-28.72546 z M 574.12565,85.23148 c 1.42476,-11.09208 1.94822,-18.88312 1.65063,-24.56647 -0.36996,-6.84187 -1.25936,-14.39585 -3.99747,-19.12559 -4.51661,-8.64268 -9.86816,-6.12592 -17.3533,-4.22911 -11.05118,3.06131 -43.39097,50.21927 -42.81962,51.33063 0.24994,0.42326 19.14037,-26.91704 33.31145,-42.1962 10.32134,-10.45741 26.24316,-8.58486 27.63892,6.10786 3.75162,19.87259 -0.57113,35.34289 -2.68253,53.82356 0.66365,1.17105 2.66225,-8.76836 4.25192,-21.14468 z"
       style="fill:#000000"
       id="path3396" /></g><path
     style="font-weight:500;font-size:11.2889px;line-height:1.25;font-family:'Atari ST 8x16 System Font';-inkscape-font-specification:'Atari ST 8x16 System Font Medium';letter-spacing:0px;word-spacing:0px;stroke-width:0.282222px"
     d="M 339.83338,6.7027695 V 6.3499913 h 1.76389 1.7639 v 0.7055563 0.7055563 h -1.41112 -1.41111 v 0.7055562 0.7055563 h 0.35278 0.35278 v 0.3527782 0.3527781 h 0.35277 0.35278 v 0.3527783 0.352778 h 0.35278 0.35278 v 0.352778 0.352778 h 0.35278 0.35278 v 1.411113 1.411112 h -0.35278 -0.35278 v 0.352778 0.352779 h -1.76389 -1.76389 V 14.11111 13.405554 h 1.41111 1.41111 v -0.705556 -0.705556 h -0.35278 -0.35277 v -0.352779 -0.352778 h -0.35278 -0.35278 v -0.352778 -0.352778 h -0.35278 -0.35278 V 10.230551 9.8777727 h -0.35277 -0.35278 V 8.4666601 7.0555476 h 0.35278 0.35277 z m 4.93888,3.8805595 V 6.3499913 h 0.70555 0.70556 v 1.0583344 1.0583344 h 1.05833 1.05834 v 0.3527782 0.3527781 h 0.35278 0.35277 v 2.8222256 2.822225 h -0.70555 -0.70556 V 12.34722 9.8777727 h -0.70555 -0.70556 v 2.4694473 2.469447 h -0.70556 -0.70555 z m 5.64443,1.058334 V 8.4666601 h 1.76389 1.76389 v 0.3527782 0.3527781 h 0.35277 0.35278 v 0.7055563 0.7055563 h -0.70555 -0.70556 V 10.230551 9.8777727 h -0.70556 -0.70555 v 2.4694473 2.469447 h -0.70556 -0.70555 z m 5.64442,-0.352778 V 8.4666601 h 0.70556 0.70556 v 2.4694469 2.469447 h 0.70555 0.70556 V 10.936107 8.4666601 h 0.70556 0.70555 v 3.1750029 3.175004 h -1.76389 -1.76389 V 14.463888 14.11111 h -0.35278 -0.35278 z m 7.05555,-3.5277811 V 7.0555476 h 0.70555 0.70556 v 0.7055563 0.7055562 h 0.70555 0.70556 v 0.7055563 0.7055563 h -0.70556 -0.70555 v 1.7638903 1.763891 h 0.70555 0.70556 v 0.705556 0.705557 h -1.05833 -1.05834 V 14.463888 14.11111 h -0.35278 -0.35277 V 11.994442 9.8777727 h -0.70556 -0.70556 V 9.1722164 8.4666601 h 0.70556 0.70556 z m 4.93887,1.4111125 V 8.4666601 h 1.05833 1.05834 v 2.4694469 2.469447 h 0.35277 0.35278 v 0.705556 0.705557 h -1.41111 -1.41111 V 14.11111 13.405554 h 0.35278 0.35277 V 11.641663 9.8777727 h -0.35277 -0.35278 z m 0.70555,-2.1166688 V 6.3499913 h 0.70556 0.70556 v 0.7055563 0.7055563 h -0.70556 -0.70556 z m 4.23332,2.8222251 V 9.1722164 h 2.11667 2.11667 v 0.7055563 0.7055563 h -2.11667 -2.11667 z m 7.05554,-2.8222251 V 6.3499913 h 0.70556 0.70555 v 3.5277814 3.5277813 h 0.70556 0.70556 v 0.705556 0.705557 h -2.11667 -2.11667 V 14.11111 13.405554 h 0.70556 0.70555 V 11.288885 9.1722164 h -0.35278 -0.35277 V 8.4666601 7.7611039 h 0.35277 0.35278 z"
     id="text4896"
     aria-label="Shruti-1" /><path
     class="fil1"
     d="m 63.286402,217.71481 h 0.380968 v -1.52387 h -0.380968 z m 0,-1.72706 h 0.380968 v -0.35557 h -0.380968 z m 0.761936,0.20319 v 1.52387 h 0.406366 v -0.91433 c 0,-0.20318 0.126989,-0.30477 0.330172,-0.30477 0.177785,0 0.253978,0.10159 0.253978,0.27938 v 0.93972 h 0.406367 v -1.04131 c 0,-0.33018 -0.203183,-0.53336 -0.533355,-0.53336 -0.203183,0 -0.35557,0.10159 -0.457161,0.25398 v -0.20318 z m 0,0 z"
     id="path1"
     style="fill:#000000;fill-rule:evenodd;stroke-width:0.0253979;image-rendering:optimizeQuality;shape-rendering:geometricPrecision;text-rendering:geometricPrecision" /><path
     class="fil1"
     d="m 42.218885,216.03855 c -0.457161,0 -0.736538,0.30477 -0.736538,0.81273 0,0.50796 0.279377,0.81273 0.761936,0.81273 0.457161,0 0.736537,-0.30477 0.736537,-0.81273 0,-0.50796 -0.279376,-0.81273 -0.761935,-0.81273 z m 0.0254,0.33017 c 0.203183,0 0.35557,0.17779 0.35557,0.48256 0,0.30477 -0.152387,0.50796 -0.35557,0.50796 -0.228581,0 -0.380968,-0.20319 -0.380968,-0.50796 0,-0.27938 0.152386,-0.48256 0.380968,-0.48256 z m 2.412796,1.2445 v -1.54927 h -0.406368 v 0.96512 c 0,0.17778 -0.126989,0.30477 -0.330172,0.30477 -0.152387,0 -0.253979,-0.10159 -0.253979,-0.27938 v -0.99051 h -0.380967 v 1.06671 c 0,0.35557 0.177785,0.53335 0.507957,0.53335 0.203182,0 0.35557,-0.0762 0.457161,-0.25398 v 0.20319 z m 1.041311,-1.52388 H 45.49521 v -0.40636 h -0.406366 v 0.40636 h -0.203183 v 0.27938 h 0.203183 v 0.93972 c 0,0.22858 0.126989,0.35557 0.380968,0.35557 0.101591,0 0.177785,0 0.22858,-0.0254 v -0.27937 c -0.0254,0 -0.05079,0 -0.07619,0 -0.101592,0 -0.126989,-0.0254 -0.126989,-0.15239 v -0.83813 h 0.203182 z m 0,0 z"
     id="path63-5"
     style="fill:#000000;fill-rule:evenodd;stroke-width:0.0253979;image-rendering:optimizeQuality;shape-rendering:geometricPrecision;text-rendering:geometricPrecision" /><path
     class="fil1"
     d="m 323.10022,28.375936 h 0.87855 v -3.514172 h -0.87855 z m 0,-3.982746 h 0.87855 v -0.819974 h -0.87855 z m 1.7571,0.468574 v 3.514172 h 0.9371 v -2.108522 c 0,-0.46855 0.29285,-0.702825 0.7614,-0.702825 0.41,0 0.5857,0.234275 0.5857,0.644274 v 2.167073 h 0.93712 v -2.401348 c 0,-0.761423 -0.46855,-1.229973 -1.22997,-1.229973 -0.46855,0 -0.81998,0.234275 -1.05425,0.585699 v -0.46855 z m 0,0 z"
     id="path2"
     style="fill:#000000;fill-rule:evenodd;stroke-width:0.0585697;image-rendering:optimizeQuality;shape-rendering:geometricPrecision;text-rendering:geometricPrecision" /><path
     class="fil1"
     d="m 322.42668,45.342422 c -1.05425,0 -1.69852,0.702826 -1.69852,1.874224 0,1.171399 0.64427,1.874224 1.75707,1.874224 1.05428,0 1.69853,-0.702825 1.69853,-1.874224 0,-1.171398 -0.64425,-1.874224 -1.75708,-1.874224 z m 0.0586,0.7614 c 0.46855,0 0.81997,0.409999 0.81997,1.112824 0,0.702826 -0.35142,1.171399 -0.81997,1.171399 -0.52713,0 -0.87855,-0.468573 -0.87855,-1.171399 0,-0.644274 0.3514,-1.112824 0.87855,-1.112824 z m 5.5641,2.869922 v -3.572747 h -0.93713 v 2.225648 c 0,0.409976 -0.29282,0.702825 -0.7614,0.702825 -0.3514,0 -0.5857,-0.234275 -0.5857,-0.644274 v -2.284199 h -0.87852 v 2.459923 c 0,0.819975 0.40997,1.22995 1.17137,1.22995 0.46858,0 0.81998,-0.175723 1.05425,-0.585699 v 0.468573 z m 2.40134,-3.514196 h -0.46855 v -0.9371 h -0.9371 v 0.9371 h -0.46857 v 0.644274 h 0.46857 v 2.167074 c 0,0.527125 0.29283,0.819974 0.87853,0.819974 0.23427,0 0.41,0 0.52712,-0.05857 v -0.644251 c -0.0586,0 -0.11715,0 -0.17572,0 -0.23427,0 -0.29285,-0.05858 -0.29285,-0.351424 v -1.932799 h 0.46857 z m 0,0 z"
     id="path3"
     style="fill:#000000;fill-rule:evenodd;stroke-width:0.0585697;image-rendering:optimizeQuality;shape-rendering:geometricPrecision;text-rendering:geometricPrecision" /><path
     style="font-weight:500;font-size:8px;line-height:1.25;font-family:'Atari ST 8x16 System Font';-inkscape-font-specification:'Atari ST 8x16 System Font Medium';letter-spacing:0px;word-spacing:0px;stroke-width:0.282222px"
     d="m 314.13388,139.92258 v -0.25 h 1 1 v 0.25 0.25 h 0.25 0.25 v 2.5 2.5 h -0.25 -0.25 v 0.25 0.25 h -1 -1 v -0.25 -0.25 h -0.25 -0.25 v -2.5 -2.5 h 0.25 0.25 z m 1.5,2.75 v -2 h -0.5 -0.5 v 2 2 h 0.5 0.5 z m 2.49999,-1.25 v -0.25 h 1.25 1.25 v 0.5 0.5 h -1 -1 v 0.25 0.25 h 0.25 0.25 v 0.25 0.25 h 0.5 0.5 v 0.25 0.25 h 0.25 0.25 v 0.75 0.75 h -0.25 -0.25 v 0.25 0.25 h -1.25 -1.25 v -0.5 -0.5 h 1 1 v -0.25 -0.25 h -0.25 -0.25 v -0.25 -0.25 h -0.5 -0.5 v -0.25 -0.25 h -0.25 -0.25 v -0.75 -0.75 h 0.25 0.25 z m 3.99998,0 v -0.25 h 1 1 v 0.5 0.5 h -0.75 -0.75 v 1.25 1.25 h 1 1 v 0.5 0.5 h -1.25 -1.25 v -0.25 -0.25 h -0.25 -0.25 v -1.75 -1.75 h 0.25 0.25 z"
     id="text4896-2"
     aria-label="Osc" /><path
     style="font-weight:500;font-size:8px;line-height:1.25;font-family:'Atari ST 8x16 System Font';-inkscape-font-specification:'Atari ST 8x16 System Font Medium';letter-spacing:0px;word-spacing:0px;stroke-width:0.282222px"
     d="m 329.56854,142.67258 v -3 h 1.5 1.5 v 0.5 0.5 h -1 -1 v 0.5 0.5 h 0.75 0.75 v 0.5 0.5 h -0.75 -0.75 v 1.5 1.5 h -0.5 -0.5 z m 4.49999,-2.5 v -0.5 h 0.75 0.75 v 2.5 2.5 h 0.25 0.25 v 0.5 0.5 h -1 -1 v -0.5 -0.5 h 0.25 0.25 v -2 -2 h -0.25 -0.25 z m 4.49998,0.5 v -0.5 h 0.5 0.5 v 0.5 0.5 h 0.5 0.5 v 0.5 0.5 h -0.5 -0.5 v 1.25 1.25 h 0.5 0.5 v 0.5 0.5 h -0.75 -0.75 v -0.25 -0.25 h -0.25 -0.25 v -1.5 -1.5 h -0.5 -0.5 v -0.5 -0.5 h 0.5 0.5 z"
     id="text3"
     aria-label="Flt" /><path
     style="font-weight:500;font-size:8px;line-height:1.25;font-family:'Atari ST 8x16 System Font';-inkscape-font-specification:'Atari ST 8x16 System Font Medium';letter-spacing:0px;word-spacing:0px;stroke-width:0.282222px"
     d="m 345.50323,142.67258 v -3 h 0.5 0.5 v 0.5 0.5 h 0.25 0.25 v 0.5 0.5 h 0.25 0.25 v -0.5 -0.5 h 0.25 0.25 v -0.5 -0.5 h 0.5 0.5 v 3 3 h -0.5 -0.5 v -1.75 -1.75 h -0.25 -0.25 v 0.5 0.5 h -0.25 -0.25 v -0.5 -0.5 h -0.25 -0.25 v 1.75 1.75 h -0.5 -0.5 z m 4.99999,-1.25 v -0.25 h 1 1 v 0.25 0.25 h 0.25 0.25 v 1.75 1.75 h -0.25 -0.25 v 0.25 0.25 h -1 -1 v -0.25 -0.25 h -0.25 -0.25 v -1.75 -1.75 h 0.25 0.25 z m 1.5,2 v -1.25 h -0.5 -0.5 v 1.25 1.25 h 0.5 0.5 z m 3.99998,-3 v -0.75 h 0.5 0.5 v 3 3 h -1.25 -1.25 v -0.25 -0.25 h -0.25 -0.25 v -1.75 -1.75 h 0.25 0.25 v -0.25 -0.25 h 0.75 0.75 z m 0,3 v -1.25 h -0.5 -0.5 v 1.25 1.25 h 0.5 0.5 z"
     id="text4"
     aria-label="Mod" /><path
     style="font-weight:500;font-size:8px;line-height:1.25;font-family:'Atari ST 8x16 System Font';-inkscape-font-specification:'Atari ST 8x16 System Font Medium';letter-spacing:0px;word-spacing:0px;stroke-width:0.282222px"
     d="m 361.9379,142.67258 v -3 h 0.5 0.5 v 1 1 h 0.25 0.25 v -0.5 -0.5 h 0.25 0.25 v -0.5 -0.5 h 0.5 0.5 v 0.5 0.5 h -0.25 -0.25 v 0.5 0.5 h -0.25 -0.25 v 0.5 0.5 h 0.25 0.25 v 0.5 0.5 h 0.25 0.25 v 0.5 0.5 h 0.25 0.25 v 0.5 0.5 h -0.5 -0.5 v -0.5 -0.5 h -0.25 -0.25 v -0.5 -0.5 h -0.25 -0.25 v -0.5 -0.5 h -0.25 -0.25 v 1.5 1.5 h -0.5 -0.5 z m 4.49998,0 v -3 h 0.5 0.5 v 0.75 0.75 h 0.75 0.75 v 0.25 0.25 h 0.25 0.25 v 1.75 1.75 h -0.25 -0.25 v 0.25 0.25 h -1.25 -1.25 z m 2,0.75 v -1.25 h -0.5 -0.5 v 1.25 1.25 h 0.5 0.5 z m 3.99999,-3 v -0.75 h 0.5 0.5 v 3 3 h -1.25 -1.25 v -0.25 -0.25 h -0.25 -0.25 v -1.75 -1.75 h 0.25 0.25 v -0.25 -0.25 h 0.75 0.75 z m 0,3 v -1.25 h -0.5 -0.5 v 1.25 1.25 h 0.5 0.5 z"
     id="text5"
     aria-label="Kbd" /><path
     style="font-weight:500;font-size:8px;line-height:1.25;font-family:'Atari ST 8x16 System Font';-inkscape-font-specification:'Atari ST 8x16 System Font Medium';letter-spacing:0px;word-spacing:0px;stroke-width:0.282222px"
     d="m 378.37259,142.67258 v -3 h 0.5 0.5 v 0.5 0.5 h 0.25 0.25 v 0.5 0.5 h 0.25 0.25 v -0.5 -0.5 h 0.25 0.25 v -0.5 -0.5 h 0.5 0.5 v 3 3 h -0.5 -0.5 v -1.75 -1.75 h -0.25 -0.25 v 0.5 0.5 h -0.25 -0.25 v -0.5 -0.5 h -0.25 -0.25 v 1.75 1.75 h -0.5 -0.5 z m 4.99998,-1.25 v -0.25 h 1 1 v 0.25 0.25 h 0.25 0.25 v 1 1 h -1 -1 v 0.5 0.5 h 1 1 v 0.5 0.5 h -1.25 -1.25 v -0.25 -0.25 h -0.25 -0.25 v -1.75 -1.75 h 0.25 0.25 z m 1.5,1.25 v -0.5 h -0.5 -0.5 v 0.5 0.5 h 0.5 0.5 z m 1.99999,-1.25 v -0.25 h 0.5 0.5 v 0.25 0.25 h 0.25 0.25 v -0.25 -0.25 h 0.5 0.5 v 0.25 0.25 h 0.25 0.25 v 2 2 h -0.5 -0.5 v -1.5 -1.5 h -0.25 -0.25 v 0.75 0.75 h -0.25 -0.25 v -0.75 -0.75 h -0.25 -0.25 v 1.5 1.5 h -0.5 -0.5 v -2 -2 h 0.25 0.25 z"
     id="text6"
     aria-label="Mem" /><path
     style="font-weight:500;font-size:8px;line-height:1.25;font-family:'Atari ST 8x16 System Font';-inkscape-font-specification:'Atari ST 8x16 System Font Medium';letter-spacing:0px;word-spacing:0px;stroke-width:0.282222px"
     d="m 394.80725,141.92258 v -2.75 h 0.5 0.5 v 2.5 2.5 h 0.5 0.5 v -2.5 -2.5 h 0.5 0.5 v 2.75 2.75 h -0.25 -0.25 v 0.25 0.25 h -1 -1 v -0.25 -0.25 h -0.25 -0.25 z m 3.99999,1.5 v -2.75 h 1.25 1.25 v 0.25 0.25 h 0.25 0.25 v 1.75 1.75 h -0.25 -0.25 v 0.25 0.25 h -0.75 -0.75 v 0.5 0.5 h -0.5 -0.5 z m 2,-0.5 v -1.25 h -0.5 -0.5 v 1.25 1.25 h 0.5 0.5 z"
     id="text7"
     aria-label="Up" /><path
     style="font-weight:500;font-size:8px;line-height:1.25;font-family:'Atari ST 8x16 System Font';-inkscape-font-specification:'Atari ST 8x16 System Font Medium';letter-spacing:0px;word-spacing:0px;stroke-width:0.282222px"
     d="m 406.74194,142.67258 v -3 h 1 1 v 0.25 0.25 h 0.25 0.25 v 0.25 0.25 h 0.25 0.25 v 2 2 h -0.25 -0.25 v 0.25 0.25 h -0.25 -0.25 v 0.25 0.25 h -1 -1 z m 1.5,-1.75 v -0.25 h -0.25 -0.25 v 2 2 h 0.25 0.25 v -0.25 -0.25 h 0.25 0.25 v -1.5 -1.5 h -0.25 -0.25 z m 1.99999,2.5 v -2.25 h 0.5 0.5 v 1 1 h 0.25 0.25 v -0.5 -0.5 h 0.25 0.25 v 0.5 0.5 h 0.25 0.25 v -1 -1 h 0.5 0.5 v 2.25 2.25 h -0.25 -0.25 v -0.25 -0.25 h -0.25 -0.25 v -0.25 -0.25 h -0.25 -0.25 v -0.25 -0.25 h -0.25 -0.25 v 0.25 0.25 h -0.25 -0.25 v 0.25 0.25 h -0.25 -0.25 v 0.25 0.25 h -0.25 -0.25 z"
     id="text8"
     aria-label="Dw" /></svg>
