<svg width="429mm" height="305mm" viewBox="0 0 429 305" xmlns="http://www.w3.org/2000/svg" version="1.1" preserveAspectRatio="xMidYMid meet"><g id="svgGroup" stroke-linecap="round" fill-rule="evenodd" font-size="9pt" stroke="#000" stroke-width="0.25mm" fill="none" style="stroke:#000;stroke-width:0.25mm;fill:none"><path d="M 0 249 L 0 265 L 3 265 L 3 289 L 0 289 L 0 305 L 32 305 L 32 302 L 56 302 L 56 305 L 80 305 L 80 302 L 104 302 L 104 305 L 128 305 L 136 305 L 136 289 L 133 289 L 133 265 L 136 265 L 136 249 L 104 249 L 104 252 L 80 252 L 80 249 L 56 249 L 56 252 L 32 252 L 32 249 L 8 249 L 0 249 Z" id="front_outsideCutPath" stroke="#FF0000" stroke-width="0.1" style="stroke:#FF0000;stroke-width:0.1" vector-effect="non-scaling-stroke"/><path d="M 142 249 L 142 265 L 139 265 L 139 289 L 142 289 L 142 305 L 154.5 305 L 154.5 302 L 178.5 302 L 178.5 305 L 202.5 305 L 202.5 302 L 226.5 302 L 226.5 305 L 250.5 305 L 250.5 302 L 274.5 302 L 274.5 305 L 287 305 L 287 289 L 290 289 L 290 265 L 287 265 L 287 249 L 274.5 249 L 274.5 252 L 250.5 252 L 250.5 249 L 226.5 249 L 226.5 252 L 202.5 252 L 202.5 249 L 178.5 249 L 178.5 252 L 154.5 252 L 154.5 249 L 142 249 Z" id="left_outsideCutPath" stroke="#FF0000" stroke-width="0.1" style="stroke:#FF0000;stroke-width:0.1" vector-effect="non-scaling-stroke"/><path d="M 296 157 L 296 169.5 L 293 169.5 L 293 193.5 L 296 193.5 L 296 217.5 L 293 217.5 L 293 241.5 L 296 241.5 L 296 265.5 L 293 265.5 L 293 289.5 L 296 289.5 L 296 302 L 325 302 L 325 305 L 349 305 L 349 302 L 373 302 L 373 305 L 397 305 L 397 302 L 421 302 L 426 302 L 426 289.5 L 429 289.5 L 429 265.5 L 426 265.5 L 426 241.5 L 429 241.5 L 429 217.5 L 426 217.5 L 426 193.5 L 429 193.5 L 429 169.5 L 426 169.5 L 426 157 L 397 157 L 397 154 L 373 154 L 373 157 L 349 157 L 349 154 L 325 154 L 325 157 L 301 157 L 296 157 Z" id="top_outsideCutPath" stroke="#FF0000" stroke-width="0.1" style="stroke:#FF0000;stroke-width:0.1" vector-effect="non-scaling-stroke"/><path d="M 0 190 L 0 206 L 3 206 L 3 230 L 0 230 L 0 246 L 32 246 L 32 243 L 56 243 L 56 246 L 80 246 L 80 243 L 104 243 L 104 246 L 128 246 L 136 246 L 136 230 L 133 230 L 133 206 L 136 206 L 136 190 L 104 190 L 104 193 L 80 193 L 80 190 L 56 190 L 56 193 L 32 193 L 32 190 L 8 190 L 0 190 Z" id="back_outsideCutPath" stroke="#FF0000" stroke-width="0.1" style="stroke:#FF0000;stroke-width:0.1" vector-effect="non-scaling-stroke"/><path d="M 142 190 L 142 206 L 139 206 L 139 230 L 142 230 L 142 246 L 154.5 246 L 154.5 243 L 178.5 243 L 178.5 246 L 202.5 246 L 202.5 243 L 226.5 243 L 226.5 246 L 250.5 246 L 250.5 243 L 274.5 243 L 274.5 246 L 287 246 L 287 230 L 290 230 L 290 206 L 287 206 L 287 190 L 274.5 190 L 274.5 193 L 250.5 193 L 250.5 190 L 226.5 190 L 226.5 193 L 202.5 193 L 202.5 190 L 178.5 190 L 178.5 193 L 154.5 193 L 154.5 190 L 142 190 Z" id="right_outsideCutPath" stroke="#FF0000" stroke-width="0.1" style="stroke:#FF0000;stroke-width:0.1" vector-effect="non-scaling-stroke"/><path d="M 296 3 L 296 15.5 L 293 15.5 L 293 39.5 L 296 39.5 L 296 63.5 L 293 63.5 L 293 87.5 L 296 87.5 L 296 111.5 L 293 111.5 L 293 135.5 L 296 135.5 L 296 148 L 325 148 L 325 151 L 349 151 L 349 148 L 373 148 L 373 151 L 397 151 L 397 148 L 421 148 L 426 148 L 426 135.5 L 429 135.5 L 429 111.5 L 426 111.5 L 426 87.5 L 429 87.5 L 429 63.5 L 426 63.5 L 426 39.5 L 429 39.5 L 429 15.5 L 426 15.5 L 426 3 L 397 3 L 397 0 L 373 0 L 373 3 L 349 3 L 349 0 L 325 0 L 325 3 L 301 3 L 296 3 Z" id="bottom_outsideCutPath" stroke="#FF0000" stroke-width="0.1" style="stroke:#FF0000;stroke-width:0.1" vector-effect="non-scaling-stroke"/></g></svg>